<svg width="46" height="60" viewBox="0 0 46 60" fill="none" xmlns="http://www.w3.org/2000/svg">
<g clip-path="url(#clip0_347_17)">
<path d="M22.9844 59.8909C22.9844 59.8909 34.4455 60.251 39.016 57.456C39.0653 57.456 44.5901 45.6893 44.6394 41.4237C44.6394 41.2731 45.9067 40.0511 45.5262 35.3328C45.6255 35.0058 46.2985 33.3341 45.577 28.8727C45.6937 27.8934 46.2675 24.9997 45.0835 22.0578C45.0835 21.9109 43.3569 10.1442 38.9175 4.21143C38.869 4.16397 39.5587 1.5272 36.9135 1.0104C36.8195 0.992314 36.7255 0.983274 36.6322 0.96218C35.9501 0.806234 32.4528 0.109375 22.9844 0.109375" stroke="#BCA48D" stroke-width="0.8" stroke-miterlimit="10"/>
<path d="M38.9175 4.21045C38.9175 4.21045 38.9668 5.6328 22.9844 5.6328" stroke="#BCA48D" stroke-width="0.8" stroke-miterlimit="10"/>
<path d="M22.9844 3.05034C22.9844 3.05034 33.8119 3.05411 35.036 2.62997C35.036 2.62997 37.3667 2.07775 35.036 1.63703C35.036 1.63703 33.4443 1.29802 22.9844 1.30179" stroke="#BCA48D" stroke-width="0.8" stroke-miterlimit="10"/>
<path d="M45.0835 22.0571C45.0835 22.0571 45.1328 24.7534 22.9844 24.7534" stroke="#BCA48D" stroke-width="0.8" stroke-miterlimit="10"/>
<path d="M45.577 28.8721C45.577 28.8721 42.5679 31.1276 22.9844 31.1276" stroke="#BCA48D" stroke-width="0.8" stroke-miterlimit="10"/>
<path d="M45.5262 35.3311C45.5262 35.3311 39.6573 37.3531 22.9844 37.3531" stroke="#BCA48D" stroke-width="0.8" stroke-miterlimit="10"/>
<path d="M44.6394 41.4229C44.6394 41.4229 41.8281 43.139 22.9844 43.139" stroke="#BCA48D" stroke-width="0.8" stroke-miterlimit="10"/>
<path d="M23.018 59.875C23.018 59.875 11.5561 60.2351 6.98634 57.4401C6.93708 57.4401 1.41229 45.6734 1.36302 41.4078C1.36302 41.2609 0.0957032 40.0352 0.4762 35.3169C0.376907 34.99 -0.296162 33.3182 0.425418 28.8568C0.308692 27.8775 -0.26509 24.9838 0.918848 22.0419C0.918848 21.8913 2.64549 10.1283 7.08488 4.19554C7.13339 4.14808 6.44364 1.51131 9.08893 0.994505C9.18292 0.976425 9.2769 0.967385 9.37013 0.94629C10.0523 0.790344 13.5495 0.0942383 23.018 0.0942383" stroke="#BCA48D" stroke-width="0.8" stroke-miterlimit="10"/>
<path d="M7.08399 4.19531C7.08399 4.19531 7.03472 5.61766 23.0171 5.61766" stroke="#BCA48D" stroke-width="0.8" stroke-miterlimit="10"/>
<path d="M23.0172 3.0352C23.0172 3.0352 12.1897 3.03897 10.9656 2.61483C10.9656 2.61483 8.63483 2.06337 10.9656 1.6219C10.9656 1.6219 12.5573 1.28289 23.0172 1.28665" stroke="#BCA48D" stroke-width="0.8" stroke-miterlimit="10"/>
<path d="M0.91797 22.042C0.91797 22.042 0.868702 24.7383 23.0171 24.7383" stroke="#BCA48D" stroke-width="0.8" stroke-miterlimit="10"/>
<path d="M0.423828 28.8569C0.423828 28.8569 3.43294 31.1125 23.0164 31.1125" stroke="#BCA48D" stroke-width="0.8" stroke-miterlimit="10"/>
<path d="M0.474609 35.3169C0.474609 35.3169 6.34351 37.3389 23.0164 37.3389" stroke="#BCA48D" stroke-width="0.8" stroke-miterlimit="10"/>
<path d="M1.36133 41.4077C1.36133 41.4077 4.17261 43.1239 23.0163 43.1239" stroke="#BCA48D" stroke-width="0.8" stroke-miterlimit="10"/>
</g>
<defs>
<clipPath id="clip0_347_17">
<rect width="46" height="60" fill="white"/>
</clipPath>
</defs>
</svg>
