<svg width="890" height="40" viewBox="0 0 890 40" fill="none" xmlns="http://www.w3.org/2000/svg">
<path fill-rule="evenodd" clip-rule="evenodd" d="M222.572 17.4245C213.21 22.074 205.342 25.8772 199.001 28.8111C192.588 31.7824 187.556 33.2916 183.905 33.3706C180.206 33.4884 177.139 32.5478 174.731 30.5315C172.297 28.5362 170.799 26.2071 170.192 23.5644C168.786 18.398 169.489 14.5809 172.297 12.0773C175.104 9.57056 178.22 8.24096 181.658 8.08358C184.607 7.88605 187.112 8.86633 189.124 10.9811C191.138 13.0932 192.144 15.1278 192.144 17.0857C192.144 19.1817 191.37 20.7268 189.849 21.7065C188.306 22.684 187.227 23.1151 186.574 22.9958C184.49 22.7635 183.369 21.8429 183.228 20.2369C183.624 18.8273 184.441 18.2619 185.614 18.5544C186.81 18.8276 187.743 19.2784 188.443 19.9055C188.562 17.3416 187.672 15.8338 185.753 15.3646C183.836 14.914 182.476 13.6997 181.658 11.7641C180.418 13.8175 178.873 15.0717 177.026 15.4817C175.175 15.8942 174.31 17.3786 174.448 19.9058C176.089 18.9454 177.211 18.7105 177.797 19.182C178.404 19.6501 178.708 20.2571 178.708 20.9825C178.709 22.8597 179.434 24.3085 180.932 25.3465C182.408 26.3831 184.162 27.0083 186.175 27.2434C189.542 27.4971 192.797 25.8354 195.911 22.214C199.022 18.6127 198.181 14.0922 193.384 8.65296C195.467 8.47631 197.596 9.23749 199.748 10.9621C201.902 12.6628 202.419 14.9912 201.319 17.8877C202.02 17.8877 202.699 17.106 203.423 15.5005C204.127 13.9157 204.314 12.6235 204.009 11.6461C205.367 11.5666 206.327 11.9002 206.842 12.6631C207.377 13.4453 207.707 13.9941 207.849 14.3275C208.9 13.4268 209.297 12.6839 209.065 12.135C208.853 11.5666 208.431 10.9811 207.849 10.3144C215.003 12.3202 219.98 7.23468 221.564 1.89928C217.757 8.50284 192.566 3.88601 186.315 2.8587C177.631 1.44766 171.594 4.01181 168.203 10.549C168.53 8.98436 169.019 7.18209 169.654 5.1279C170.283 3.09229 169.443 1.37046 167.1 0C164.738 1.37046 163.823 3.09229 164.409 5.1279C164.972 7.18209 165.44 8.98437 165.814 10.5488C162.468 4.01156 156.428 1.44792 147.7 2.8587C141.004 3.95373 116.723 8.78382 112.453 1.89901C114.152 7.22716 118.922 12.3338 126.166 10.3144C125.63 10.9808 125.232 11.5668 125.023 12.135C124.786 12.6839 125.163 13.4268 126.167 14.3275C126.355 13.9939 126.706 13.4455 127.198 12.6626C127.713 11.9004 128.649 11.5668 130.007 11.6458C129.654 12.6232 129.864 13.9157 130.637 15.5005C131.41 17.1058 132.136 17.8879 132.837 17.8877C131.691 14.9909 132.182 12.6631 134.312 10.9621C136.419 9.23766 138.596 8.47657 140.771 8.65296C135.858 14.0919 134.945 18.613 138.082 22.214C141.216 25.8351 144.518 27.4971 147.98 27.2434C152.872 26.6564 155.327 24.5826 155.327 20.9828C155.327 20.2569 155.61 19.6504 156.171 19.182C156.757 18.7105 157.88 18.9454 159.565 19.9058C159.753 17.3786 158.886 15.8945 156.988 15.4817C155.095 15.0714 153.55 13.8175 152.38 11.7638C151.491 13.6994 150.111 14.914 148.214 15.3646C146.319 15.8333 145.5 17.3413 145.709 19.9055C146.273 19.2782 147.137 18.8276 148.355 18.5541C149.573 18.2614 150.392 18.8278 150.788 20.2369C150.6 21.8429 149.501 22.7635 147.443 22.9956C146.835 23.1151 145.757 22.6842 144.214 21.7065C142.666 20.7268 141.871 19.1822 141.871 17.0857C141.871 15.1278 142.902 13.0934 144.937 10.9811C146.975 8.86553 149.456 7.88659 152.38 8.08385C155.797 8.24096 158.91 9.57109 161.717 12.0773C164.551 14.5811 165.276 18.398 163.965 23.5647C163.217 26.2068 161.673 28.5364 159.283 30.5315C156.92 32.5475 153.903 33.4881 150.251 33.3711C146.504 33.2919 141.405 31.7824 134.992 28.8111C128.554 25.8542 120.622 22.0194 111.169 17.3213C103.022 13.0739 95.5793 9.45253 88.8166 6.47881C82.0518 3.5021 76.3872 2.01484 71.8713 2.01484C67.2608 2.01458 63.4453 3.22888 60.4477 5.67554C57.4555 8.12265 55.8174 10.4132 55.4901 12.5663C55.0675 10.4132 53.382 8.12265 50.4105 5.67554C47.439 3.22888 43.6943 2.01484 39.1745 2.01484C34.5421 2.01458 28.8985 3.50183 22.208 6.47881C15.5414 9.42945 8.16382 13.0182 0 17.2233V21.923C9.32481 17.1118 17.173 13.2881 23.4943 10.4335C29.886 7.57483 34.9146 6.08758 38.614 5.9683C42.4022 5.73488 45.4937 6.61542 47.837 8.63167C50.1983 10.6277 51.6968 12.9769 52.3292 15.6573C53.7567 20.803 53.0314 24.6417 50.198 27.147C47.3677 29.6514 44.2538 31.0215 40.884 31.2558C37.8657 31.3759 35.3624 30.3561 33.3705 28.243C31.3823 26.1093 30.3994 24.0718 30.3994 22.1366C30.3994 20.0622 31.1489 18.5544 32.6455 17.5754C34.169 16.5954 35.2667 16.1465 35.9477 16.226C38.0051 16.4972 39.1271 17.4203 39.316 18.9842C38.895 20.4318 38.0767 21.0201 36.8842 20.7268C35.6653 20.4321 34.7297 20.0015 34.0967 19.4356C33.9579 21.9584 34.8472 23.4464 36.7421 23.8778C38.6375 24.3289 40.019 25.5228 40.884 27.46C42.0765 25.4419 43.599 24.191 45.4712 23.7427C47.3437 23.2702 48.2113 21.8429 48.0935 19.4356C46.3843 20.3546 45.2599 20.5516 44.6752 20.0423C44.1132 19.5325 43.833 18.9256 43.833 18.2409C43.833 16.4032 43.0841 14.9724 41.5631 13.9541C40.0656 12.9553 38.3321 12.3305 36.3675 12.0949C32.9288 11.8024 29.6741 13.4455 26.5851 17.0285C23.4949 20.6293 24.3613 25.1685 29.158 30.6681C27.0055 30.7881 24.8535 30.0036 22.7217 28.3013C20.569 26.5963 20.0562 24.3083 21.2022 21.4516C20.5231 21.4516 19.8218 22.214 19.0738 23.7427C18.3472 25.2667 18.1597 26.5392 18.5349 27.5768C17.1086 27.6945 16.1448 27.3612 15.6569 26.579C15.142 25.7975 14.8345 25.2276 14.6951 24.8748C13.5962 25.7976 13.152 26.5206 13.3891 27.0672C13.6195 27.5963 14.0407 28.2036 14.6951 28.9074C7.52396 26.9885 2.38235 31.9888 0.981252 37.4416C4.23627 30.6972 30.2099 35.4057 36.1568 36.3839C44.8382 37.8118 50.9021 35.2889 54.3183 28.7901C53.9437 30.2781 53.4519 32.0588 52.8447 34.1142C52.236 36.1882 53.1 37.9115 55.4904 39.2809C57.8296 37.911 58.6951 36.1884 58.0858 34.1139C57.499 32.0588 57.0318 30.2783 56.7309 28.7898C60.0047 35.2886 66.0221 37.8118 74.7485 36.3839C81.3627 35.3017 105.893 30.5835 110.068 37.441C108.336 32.1041 103.653 26.9549 96.3499 28.9074C96.8886 28.2036 97.287 27.596 97.4758 27.0672C97.6858 26.5206 97.3106 25.7978 96.3499 24.8748C96.1179 25.2274 95.7684 25.7978 95.2533 26.579C94.7596 27.361 93.8476 27.6945 92.514 27.5768C92.8868 26.5389 92.6749 25.2667 91.9035 23.7427C91.1099 22.214 90.384 21.4516 89.7061 21.4514C90.8069 24.3088 90.2899 26.5968 88.1846 28.3013C86.0998 30.0033 83.9468 30.7879 81.7482 30.6681C86.6389 25.1682 87.5279 20.6298 84.3928 17.0285C81.2555 13.4455 77.9798 11.8024 74.5387 12.0951C69.6479 12.6235 67.2144 14.6796 67.2144 18.2406C67.2144 18.9248 66.9329 19.5328 66.3473 20.0421C65.7863 20.5516 64.6624 20.3549 62.955 19.4356C62.72 21.8429 63.5604 23.2702 65.4583 23.7427C67.354 24.191 68.9229 25.4419 70.1628 27.46C70.981 25.5226 72.341 24.3291 74.2351 23.8779C76.1292 23.4464 76.9965 21.959 76.8107 19.4356C76.2716 20.0012 75.3808 20.4321 74.1635 20.7268C72.946 21.0201 72.1513 20.4321 71.732 18.9845C71.8713 17.42 72.9952 16.4977 75.1009 16.2258C75.6383 16.1465 76.7148 16.5957 78.2843 17.5754C79.852 18.5546 80.6474 20.0624 80.6474 22.1366C80.6474 24.0718 79.6197 26.1096 77.5569 28.243C75.4992 30.3555 73.0411 31.3761 70.1628 31.256C66.6773 31.0212 63.5394 29.6514 60.7331 27.1472C57.9219 24.6414 57.1953 20.8033 58.5791 15.6573C59.2559 12.9766 60.7767 10.6275 63.1656 8.63167C65.5525 6.61516 68.5707 5.73488 72.2927 5.9683C76.0369 6.00765 81.0927 7.49614 87.4826 10.4715C93.8476 13.4268 101.736 17.2831 111.169 22.0191C119.383 26.1487 126.891 29.7317 133.681 32.7428C140.468 35.7581 146.131 37.2647 150.648 37.2648C155.236 37.2644 159.005 36.0318 161.999 33.5665C164.995 31.0996 166.706 28.8502 167.101 26.7747C167.43 28.8502 169.091 31.0996 172.085 33.5661C175.082 36.0318 178.828 37.2648 183.369 37.2646C187.93 37.2644 193.57 35.7583 200.289 32.7428C206.981 29.7513 214.414 26.1968 222.606 22.1038V22.0976C231.915 17.2966 239.752 13.4819 246.067 10.6265C252.458 7.76784 257.49 6.28234 261.187 6.16333C264.978 5.92921 268.067 6.80868 270.407 8.82449C272.772 10.8232 274.269 13.1689 274.904 15.8522C276.329 20.9979 275.603 24.8362 272.772 27.3423C269.942 29.8454 266.827 31.2183 263.457 31.4501C260.438 31.5687 257.934 30.5511 255.942 28.4365C253.954 26.303 252.971 24.2691 252.971 22.3302C252.971 20.2547 253.719 18.7502 255.219 17.7708C256.74 16.7898 257.839 16.3409 258.518 16.4189C260.578 16.6938 261.7 17.6141 261.887 19.1795C261.466 20.6262 260.649 21.2162 259.453 20.9216C258.238 20.6264 257.303 20.1976 256.668 19.6292C256.53 22.1537 257.418 23.6422 259.315 24.0716C261.21 24.5227 262.59 25.7165 263.457 27.6528C264.65 25.6367 266.173 24.3843 268.042 23.9359C269.915 23.465 270.783 22.0369 270.666 19.6292C268.956 20.549 267.833 20.7454 267.246 20.2359C266.687 19.7284 266.405 19.1224 266.405 18.4362C266.405 16.5958 265.656 15.1667 264.133 14.1499C262.638 13.1506 260.907 12.524 258.941 12.2895C255.499 11.997 252.246 13.6401 249.157 17.2234C246.067 20.8244 246.933 25.3648 251.731 30.8634C249.578 30.9811 247.426 30.1989 245.296 28.496C243.143 26.7934 242.627 24.5037 243.774 21.6467C243.096 21.6465 242.393 22.4071 241.645 23.9357C240.918 25.4618 240.732 26.7327 241.107 27.7704C239.677 27.8891 238.718 27.5566 238.229 26.7724C237.714 25.9907 237.408 25.4225 237.27 25.0698C236.169 25.9907 235.724 26.714 235.959 27.2626C236.191 27.7915 236.614 28.3984 237.27 29.1034C230.097 27.1838 224.954 32.1827 223.555 37.6347C226.808 30.8902 252.782 35.6 258.73 36.5777C267.412 38.0086 273.474 35.4827 276.891 28.9844C276.514 30.4721 276.023 32.2534 275.416 34.3077C274.808 36.3827 275.673 38.1045 278.061 39.4747C280.4 38.1043 281.267 36.3827 280.658 34.3077C280.072 32.2531 279.605 30.4721 279.301 28.9842C282.579 35.4832 288.593 38.0083 297.322 36.5777C303.936 35.4968 328.466 30.7794 332.64 37.6347C330.909 32.2957 326.226 27.1493 318.922 29.1034C319.463 28.3981 319.859 27.7912 320.048 27.2626C320.257 26.714 319.883 25.9909 318.922 25.0694C318.689 25.4217 318.338 25.9909 317.826 26.7724C317.332 27.5566 316.419 27.8891 315.086 27.7704C315.46 26.733 315.25 25.4618 314.476 23.9362C313.681 22.4071 312.957 21.6468 312.276 21.6472C313.377 24.5034 312.862 26.7931 310.756 28.496C308.674 30.1989 306.519 30.9817 304.318 30.8636C309.211 25.3643 310.101 20.8241 306.964 17.2236C303.83 13.6398 300.55 11.997 297.113 12.2895C292.219 12.8178 289.784 14.8727 289.784 18.4359C289.785 19.1221 289.506 19.7284 288.92 20.2362C288.359 20.745 287.233 20.5487 285.527 19.6292C285.293 22.0372 286.137 23.465 288.032 23.9357C289.925 24.3846 291.495 25.6375 292.735 27.6528C293.553 25.7167 294.91 24.5235 296.807 24.0716C298.702 23.6422 299.571 22.1537 299.382 19.6292C298.842 20.1971 297.955 20.6262 296.736 20.9219C295.518 21.2159 294.724 20.6262 294.303 19.18C294.444 17.6138 295.565 16.694 297.673 16.4189C298.211 16.3404 299.288 16.79 300.856 17.7708C302.425 18.7502 303.221 20.2553 303.221 22.3305C303.221 24.2686 302.189 26.3032 300.131 28.437C298.072 30.5511 295.613 31.5681 292.735 31.4501C289.248 31.2178 286.111 29.8455 283.303 27.342C280.495 24.836 279.768 20.9979 281.15 15.8524C281.828 13.1687 283.351 10.8233 285.737 8.82398C288.124 6.80844 291.143 5.92903 294.864 6.16333C298.608 6.20188 303.665 7.69064 310.054 10.6656C316.419 13.6215 324.307 17.4757 333.737 22.2129C341.953 26.3433 349.466 29.924 356.251 32.9386C363.041 35.9529 368.703 37.4585 373.222 37.4585C377.807 37.4582 381.576 36.2279 384.571 33.7611C387.568 31.2959 389.275 29.0436 389.673 26.9681C390.002 29.0433 391.663 31.2959 394.658 33.7614C397.655 36.2279 401.398 37.4585 405.939 37.4582C410.503 37.4582 416.143 35.9532 422.861 32.9383C429.553 29.9451 436.985 26.3906 445.18 22.2981L445.18 22.2588C454.348 17.5369 462.074 13.7752 468.314 10.9551C474.705 8.09649 479.736 6.6095 483.435 6.49314C487.225 6.25707 490.314 7.14051 492.654 9.15411C495.02 11.1506 496.516 13.4998 497.148 16.1808C498.578 21.3292 497.849 25.1649 495.02 27.6706C492.186 30.1746 489.075 31.5456 485.705 31.7804C482.686 31.899 480.18 30.8802 478.191 28.7662C476.201 26.632 475.219 24.5966 475.219 22.6588C475.219 20.5848 475.969 19.0778 477.467 18.0991C478.988 17.1191 480.086 16.6709 480.767 16.7487C482.825 17.0226 483.948 17.9411 484.135 19.5081C483.715 20.956 482.895 21.5437 481.702 21.2498C480.485 20.9555 479.547 20.5249 478.916 19.959C478.778 22.4846 479.666 23.9708 481.562 24.4014C483.458 24.8523 484.838 26.0463 485.705 27.9844C486.898 25.9673 488.42 24.7152 490.291 24.2648C492.164 23.7951 493.029 22.3658 492.912 19.9587C491.204 20.8781 490.08 21.074 489.493 20.5658C488.933 20.0554 488.653 19.4507 488.653 18.765C488.653 16.9244 487.905 15.4958 486.381 14.4779C484.886 13.4794 483.152 12.8551 481.185 12.6198C477.745 12.3246 474.494 13.9687 471.404 17.551C468.315 21.152 469.179 25.6919 473.979 31.1955C471.826 31.3115 469.67 30.5288 467.542 28.8253C465.389 27.1232 464.876 24.8322 466.021 21.9748C465.343 21.9745 464.641 22.7365 463.892 24.2646C463.166 25.7919 462.978 27.0625 463.353 28.1009C461.926 28.2175 460.966 27.8856 460.473 27.1017C459.961 26.3202 459.654 25.7528 459.515 25.3994C458.416 26.3202 457.971 27.0448 458.204 27.5927C458.44 28.1205 458.86 28.7272 459.515 29.432C452.34 27.5162 447.202 32.5147 445.801 37.966C449.054 31.2205 475.028 35.9281 480.977 36.9068C489.661 38.3374 495.719 35.8133 499.138 29.3142C498.763 30.8019 498.272 32.5812 497.664 34.6381C497.055 36.7123 497.921 38.4344 500.308 39.8034C502.648 38.4341 503.513 36.7126 502.906 34.6381C502.321 32.581 501.852 30.8019 501.548 29.3142C504.825 35.813 510.839 38.3379 519.569 36.9073C526.181 35.8243 550.714 31.108 554.886 37.966C553.156 32.6278 548.475 27.4796 541.17 29.4317C541.708 28.7268 542.108 28.1205 542.294 27.593C542.504 27.0448 542.13 26.3199 541.171 25.3994C540.939 25.7528 540.585 26.3202 540.073 27.102C539.579 27.8856 538.667 28.218 537.335 28.1012C537.707 27.0625 537.498 25.7922 536.724 24.2648C535.928 22.7365 535.202 21.9748 534.524 21.9748C535.623 24.8322 535.109 27.1232 533.003 28.8253C530.922 30.5288 528.768 31.3117 526.565 31.1955C531.458 25.6919 532.347 21.1522 529.211 17.551C526.074 13.9687 522.8 12.3246 519.359 12.6198C514.467 13.1471 512.034 15.2031 512.034 18.7645C512.034 19.4507 511.753 20.0554 511.167 20.5658C510.605 21.074 509.48 20.878 507.774 19.959C507.54 22.3655 508.384 23.7954 510.278 24.2648C512.172 24.7149 513.741 25.9681 514.981 27.9844C515.801 26.046 517.16 24.8523 519.053 24.4014C520.95 23.9705 521.817 22.4848 521.628 19.959C521.09 20.5246 520.201 20.9562 518.983 21.2498C517.765 21.5435 516.972 20.9558 516.55 19.5081C516.692 17.9411 517.814 17.0228 519.919 16.7484C520.459 16.6708 521.534 17.1194 523.102 18.0991C524.671 19.077 525.466 20.5853 525.466 22.659C525.467 24.5966 524.439 26.6322 522.378 28.7659C520.318 30.8802 517.861 31.899 514.981 31.7804C511.494 31.5453 508.36 30.1746 505.551 27.6706C502.74 25.1649 502.016 21.3292 503.394 16.181C504.075 13.4998 505.596 11.1506 507.983 9.15411C510.372 7.14007 513.391 6.25707 517.11 6.49314C520.856 6.53249 525.912 8.0192 532.299 10.9949C538.667 13.9488 546.554 17.8048 555.985 22.5432C564.199 26.6741 571.713 30.2544 578.5 33.2681C585.286 36.281 590.95 37.7897 595.466 37.7897C600.054 37.7897 603.823 36.5547 606.818 34.0897C609.813 31.6231 611.523 29.3722 611.921 27.2991C612.25 29.3722 613.911 31.6233 616.906 34.09C619.901 36.5544 623.647 37.7895 628.185 37.7897C632.749 37.7895 638.39 36.2808 645.107 33.2681C651.801 30.2744 659.234 26.7204 667.426 22.6276L667.427 22.6206C676.737 17.8228 684.572 14.0052 690.887 11.1498C697.274 8.29365 702.306 6.80259 706.007 6.68782C709.796 6.45352 712.888 7.33273 715.227 9.34925C717.589 11.3466 719.09 13.6944 719.721 16.3749C721.148 21.5233 720.423 25.3597 717.589 27.864C714.76 30.3705 711.647 31.7405 708.276 31.9756C705.257 32.0921 702.752 31.0734 700.764 28.9606C698.774 26.8266 697.791 24.7931 697.791 22.8554C697.791 20.7792 698.54 19.2729 700.039 18.2935C701.558 17.3158 702.658 16.8647 703.339 16.9439C705.396 17.2183 706.52 18.1376 706.708 19.7027C706.286 21.1517 705.467 21.7386 704.273 21.4444C703.058 21.1512 702.119 20.7213 701.489 20.1554C701.349 22.6775 702.237 24.166 704.134 24.597C706.028 25.0465 707.411 26.2404 708.276 28.1788C709.471 26.1605 710.991 24.9101 712.863 24.4585C714.735 23.9895 715.603 22.5607 715.485 20.1557C713.776 21.0744 712.654 21.2687 712.069 20.7602C711.505 20.2514 711.226 19.6447 711.226 18.9586C711.226 17.1193 710.477 15.6885 708.953 14.6751C707.456 13.6747 705.724 13.0486 703.756 12.8132C700.318 12.5205 697.065 14.1631 693.974 17.7446C690.888 21.3469 691.753 25.8884 696.55 31.3887C694.398 31.5044 692.244 30.7217 690.113 29.0182C687.961 27.3154 687.447 25.0272 688.594 22.1685C687.913 22.1682 687.212 22.9327 686.465 24.4582C685.739 25.9851 685.55 27.2568 685.926 28.2953C684.498 28.4129 683.537 28.0796 683.047 27.2986C682.533 26.5149 682.227 25.947 682.087 25.5951C680.987 26.5149 680.541 27.2385 680.777 27.7848C681.011 28.3154 681.431 28.9217 682.087 29.6262C674.916 27.7076 669.773 32.7087 668.374 38.1596C671.627 31.4149 697.6 36.1245 703.549 37.1032C712.231 38.5324 718.293 36.0072 721.709 29.5089C721.335 30.9959 720.844 32.7773 720.237 34.8308C719.629 36.906 720.492 38.6291 722.878 40C725.221 38.6288 726.088 36.9065 725.48 34.8308C724.893 32.7772 724.424 30.9959 724.12 29.5089C727.398 36.0072 733.41 38.5331 742.141 37.1032C748.754 36.0208 773.284 31.3025 777.457 38.1592C775.727 32.8215 771.045 27.6743 763.742 29.626C764.282 28.9214 764.679 28.3154 764.866 27.7848C765.078 27.2377 764.705 26.5154 763.743 25.5945C763.51 25.947 763.158 26.5151 762.642 27.2986C762.153 28.0796 761.238 28.4132 759.903 28.2953C760.28 27.2563 760.067 25.9854 759.295 24.4585C758.499 22.9322 757.774 22.1688 757.097 22.1688C758.195 25.0272 757.68 27.3151 755.574 29.018C753.49 30.7217 751.338 31.5044 749.138 31.3884C754.03 25.8884 754.92 21.3472 751.783 17.7446C748.645 14.1631 745.369 12.5208 741.929 12.8132C737.04 13.3423 734.606 15.398 734.606 18.9586C734.606 19.6449 734.323 20.2514 733.738 20.7602C733.176 21.2687 732.052 21.0743 730.348 20.1554C730.113 22.5605 730.953 23.9891 732.85 24.4585C734.746 24.9096 736.314 26.161 737.553 28.1788C738.374 26.2404 739.731 25.0465 741.629 24.597C743.521 24.1663 744.387 22.6778 744.199 20.1554C743.664 20.7213 742.773 21.1517 741.555 21.4446C740.341 21.7386 739.546 21.1519 739.122 19.703C739.263 18.1373 740.388 17.2183 742.492 16.9439C743.03 16.8641 744.108 17.316 745.673 18.2937C747.242 19.2727 748.04 20.7795 748.039 22.8552C748.04 24.7928 747.009 26.8265 744.95 28.9606C742.891 31.0734 740.431 32.0921 737.553 31.9756C734.067 31.7405 730.932 30.3705 728.121 27.8643C725.314 25.3594 724.59 21.5236 725.969 16.3746C726.647 13.6944 728.17 11.3468 730.556 9.34952C732.944 7.33247 735.963 6.45352 739.684 6.68782C743.428 6.7269 748.481 8.21595 754.872 11.1876C761.238 14.1448 769.125 18.0003 778.557 22.7357C786.771 26.8662 794.284 30.4476 801.07 33.4624C807.859 36.477 813.523 37.9839 818.044 37.9839C822.628 37.9837 826.394 36.7494 829.39 34.2826C832.387 31.8175 834.092 29.5655 834.493 27.4928C834.821 29.5655 836.482 31.8175 839.476 34.2826C842.472 36.7491 846.217 37.9839 850.757 37.9839C855.322 37.9837 860.962 36.477 867.678 33.4624C874.372 30.4686 881.805 26.9144 889.999 22.8221L890 18.1249C880.619 22.7827 872.743 26.5916 866.391 29.5275C859.98 32.5039 854.948 34.0092 851.296 34.0892C847.6 34.2052 844.532 33.2668 842.125 31.2495C839.69 29.2546 838.189 26.925 837.583 24.2828C836.178 19.115 836.879 15.3005 839.69 12.794C842.496 10.2894 845.607 8.95906 849.049 8.80115C851.996 8.60593 854.502 9.58409 856.516 11.6992C858.527 13.8127 859.536 15.8479 859.536 17.8043C859.537 19.8993 858.764 21.4446 857.241 22.4238C855.698 23.4025 854.619 23.8319 853.964 23.7151C851.882 23.4808 850.758 22.5607 850.617 20.9549C851.015 19.5471 851.833 18.9772 853.005 19.273C854.197 19.5471 855.133 19.9981 855.839 20.6228C855.954 18.0589 855.065 16.5541 853.144 16.0827C851.226 15.6323 849.867 14.4185 849.049 12.4811C847.809 14.5358 846.265 15.7892 844.417 16.1995C842.567 16.6107 841.701 18.0998 841.841 20.6228C843.478 19.6627 844.603 19.4301 845.188 19.8997C845.795 20.3677 846.099 20.9773 846.099 21.7003C846.099 23.5787 846.827 25.0272 848.323 26.064C849.801 27.0996 851.553 27.728 853.568 27.9633C856.936 28.218 860.191 26.5539 863.302 22.9321C866.414 19.3329 865.573 14.81 860.778 9.36905C862.858 9.19337 864.988 9.95632 867.141 11.6781C869.295 13.3794 869.807 15.7105 868.708 18.609C869.413 18.6088 870.089 17.8253 870.817 16.2203C871.518 14.6341 871.705 13.3423 871.401 12.3658C872.759 12.2836 873.716 12.6205 874.23 13.3796C874.772 14.1631 875.097 14.7138 875.239 15.0464C876.292 14.1448 876.688 13.4037 876.454 12.852C876.246 12.2834 875.823 11.6992 875.24 11.033C882.397 13.0385 887.373 7.95228 888.954 2.61688C885.148 9.22195 859.956 4.60438 853.705 3.57627C845.024 2.16673 838.986 4.72942 835.592 11.2678C835.92 9.7032 836.411 7.90037 837.043 5.84645C837.676 3.8104 836.834 2.08831 834.493 0.717062C832.128 2.08778 831.216 3.81057 831.8 5.84618C832.364 7.90089 832.831 9.7032 833.206 11.2678C829.859 4.72942 823.821 2.1662 815.09 3.57627C808.397 4.67104 784.113 9.50213 779.845 2.61661C781.545 7.94503 786.314 13.0518 793.557 11.0332C793.021 11.6989 792.624 12.2836 792.412 12.852C792.176 13.4037 792.553 14.1451 793.557 15.0464C793.749 14.7132 794.096 14.1631 794.59 13.3796C795.104 12.6202 796.038 12.2836 797.398 12.3661C797.048 13.3418 797.256 14.6343 798.028 16.2203C798.8 17.8256 799.528 18.609 800.229 18.6093C799.083 15.7103 799.574 13.3799 801.703 11.6781C803.811 9.95632 805.985 9.19337 808.162 9.36905C803.25 14.81 802.336 19.3331 805.471 22.9327C808.606 26.5542 811.907 28.2181 815.371 27.9635C820.264 27.3748 822.72 25.3006 822.72 21.7003C822.72 20.9773 823.001 20.368 823.563 19.899C824.148 19.4299 825.273 19.6627 826.958 20.6228C827.144 18.0992 826.279 16.6107 824.38 16.1999C822.487 15.7892 820.941 14.536 819.771 12.4814C818.881 14.4185 817.5 15.6323 815.606 16.0827C813.71 16.5546 812.891 18.0589 813.1 20.6228C813.663 19.9981 814.529 19.5471 815.745 19.273C816.963 18.9772 817.783 19.5471 818.18 20.9549C817.993 22.5604 816.894 23.4808 814.833 23.7151C814.224 23.8316 813.149 23.4025 811.604 22.4231C810.059 21.4444 809.264 19.8993 809.264 17.8043C809.264 15.8479 810.292 13.8127 812.329 11.6992C814.365 9.58435 816.845 8.60637 819.771 8.80115C823.19 8.95853 826.303 10.2894 829.111 12.794C831.943 15.3002 832.665 19.1153 831.357 24.2828C830.608 26.925 829.063 29.2547 826.677 31.2495C824.312 33.2668 821.294 34.206 817.643 34.0892C813.897 34.0087 808.795 32.5032 802.38 29.5275C795.946 26.5728 788.012 22.7357 778.557 18.0396C770.414 13.7922 762.969 10.1731 756.208 7.19615C749.442 4.22288 743.778 2.73393 739.263 2.73393C734.651 2.73393 730.838 3.94867 727.839 6.39463C724.846 8.8412 723.207 11.1317 722.878 13.2841C722.458 11.1317 720.774 8.84147 717.802 6.39463C714.831 3.94867 711.084 2.73393 706.566 2.73393C701.933 2.73393 696.294 4.22314 689.6 7.19615C682.936 10.1483 675.557 13.7355 667.392 17.9421V17.9483C658.025 22.5982 650.163 26.401 643.821 29.3332C637.409 32.3096 632.374 33.8152 628.726 33.8939C625.026 34.0122 621.961 33.0718 619.549 31.0565C617.116 29.0605 615.62 26.7304 615.009 24.089C613.605 18.9222 614.306 15.1064 617.116 12.6003C619.926 10.0945 623.036 8.76377 626.475 8.60736C629.426 8.41187 631.93 9.39027 633.942 11.5041C635.956 13.6171 636.962 15.6533 636.962 17.6114C636.963 19.7059 636.19 21.2499 634.669 22.2295C633.123 23.2093 632.047 23.6381 631.391 23.5216C629.311 23.2865 628.185 22.3661 628.047 20.7613C628.442 19.3518 629.261 18.7839 630.432 19.0782C631.627 19.3521 632.56 19.8025 633.266 20.428C633.381 17.8666 632.492 16.358 630.572 15.8884C628.656 15.4377 627.295 14.2244 626.475 12.2873C625.238 14.3415 623.693 15.5956 621.846 16.0052C619.996 16.4162 619.13 17.9036 619.269 20.4278C620.906 19.4706 622.029 19.2353 622.615 19.7055C623.225 20.1754 623.528 20.7804 623.528 21.5057C623.528 23.3837 624.255 24.8326 625.754 25.8701C627.226 26.9066 628.982 27.5336 630.996 27.7687C634.364 28.0226 637.618 26.3589 640.73 22.7371C643.844 19.136 643.002 14.6157 638.201 9.17499C640.283 9.00081 642.415 9.76198 644.57 11.4835C646.722 13.1879 647.237 15.5154 646.14 18.4137C646.838 18.4137 647.515 17.6303 648.243 16.0257C648.946 14.44 649.132 13.1475 648.828 12.1683C650.183 12.0926 651.145 12.4229 651.661 13.1876C652.199 13.969 652.527 14.5184 652.667 14.852C653.72 13.9495 654.117 13.2059 653.885 12.6575C653.674 12.0925 653.252 11.5041 652.667 10.8394C659.822 12.8444 664.802 7.75918 666.381 2.42201C662.576 9.02717 637.385 4.41004 631.135 3.38043C622.452 1.9724 616.413 4.53834 613.021 11.073C613.346 9.50682 613.839 7.7078 614.471 5.65317C615.103 3.61606 614.261 1.89494 611.921 0.524487C609.555 1.89468 608.641 3.61632 609.229 5.65317C609.79 7.7078 610.26 9.50709 610.635 11.0733C607.287 4.53808 601.249 1.9724 592.52 3.38043C585.822 4.47591 561.539 9.3086 557.271 2.42201C558.97 7.7514 563.743 12.8603 570.987 10.8392C570.449 11.5039 570.051 12.0926 569.839 12.658C569.606 13.2059 569.981 13.9492 570.987 14.8518C571.175 14.5184 571.525 13.969 572.018 13.1879C572.531 12.4229 573.468 12.0925 574.825 12.1685C574.473 13.1474 574.685 14.4402 575.456 16.0255C576.227 17.6303 576.955 18.4137 577.656 18.4144C576.51 15.5152 577.001 13.1879 579.131 11.4835C581.239 9.76172 583.413 9.00081 585.59 9.17499C580.676 14.6157 579.763 19.1357 582.899 22.7371C586.034 26.3589 589.334 28.0228 592.797 27.7682C597.69 27.1814 600.148 25.1058 600.148 21.5057C600.149 20.7806 600.432 20.1754 600.988 19.7056C601.575 19.235 602.699 19.4708 604.384 20.428C604.572 17.9035 603.706 16.4162 601.81 16.0052C599.914 15.5954 598.368 14.3412 597.199 12.2876C596.31 14.2242 594.929 15.4377 593.032 15.8881C591.138 16.358 590.318 17.8669 590.531 20.428C591.092 19.8025 591.955 19.3521 593.176 19.0779C594.392 18.7839 595.212 19.3518 595.607 20.7613C595.42 22.3658 594.322 23.287 592.261 23.5216C591.653 23.6378 590.577 23.2093 589.032 22.2295C587.487 21.2499 586.692 19.7055 586.692 17.6114C586.692 15.6538 587.723 13.6174 589.757 11.5041C591.793 9.39027 594.274 8.41185 597.199 8.6076C600.617 8.76348 603.728 10.0948 606.537 12.6006C609.369 15.1059 610.096 18.9222 608.785 24.089C608.035 26.7301 606.492 29.06 604.103 31.0565C601.741 33.072 598.721 34.0129 595.07 33.8939C591.322 33.8149 586.223 32.3094 579.811 29.3332C573.374 26.3787 565.441 22.5433 555.985 17.8458C547.842 13.5976 540.398 9.97675 533.635 7.00233C526.87 4.02711 521.209 2.54057 516.691 2.54057C512.079 2.54057 508.267 3.75417 505.269 6.19906C502.274 8.6474 500.635 10.9364 500.308 13.0906C499.884 10.9362 498.203 8.6474 495.23 6.19906C492.258 3.75434 488.511 2.54057 483.994 2.5403C479.36 2.5411 473.723 4.02729 467.028 7.00233C460.361 9.95473 452.982 13.5425 444.82 17.7495L444.82 17.7789C435.598 22.3558 427.84 26.105 421.572 29.0035C415.159 31.98 410.126 33.4863 406.476 33.5645C402.78 33.682 399.713 32.7427 397.305 30.7264C394.867 28.7324 393.371 26.4018 392.764 23.7596C391.358 18.5924 392.059 14.7761 394.867 12.27C397.678 9.76419 400.791 8.43362 404.229 8.27871C407.181 8.08225 409.683 9.05845 411.697 11.1751C413.71 13.2881 414.715 15.3242 414.715 17.2819C414.715 19.3756 413.943 20.922 412.422 21.9002C410.878 22.8784 409.8 23.309 409.143 23.1915C407.065 22.9564 405.939 22.0376 405.799 20.4317C406.197 19.0233 407.013 18.4555 408.186 18.7506C409.379 19.023 410.316 19.4746 411.018 20.0989C411.135 17.534 410.243 16.0289 408.328 15.5587C406.409 15.1082 405.051 13.8954 404.229 11.9603C402.992 14.0126 401.447 15.2663 399.596 15.6748C397.748 16.0871 396.882 17.5744 397.023 20.0989C398.66 19.1398 399.784 18.9065 400.369 19.3756C400.977 19.8436 401.281 20.4518 401.281 21.1761C401.281 23.0549 402.006 24.504 403.505 25.5398C404.978 26.5772 406.736 27.2051 408.747 27.4384C412.117 27.692 415.371 26.0298 418.484 22.4075C421.596 18.8077 420.753 14.2866 415.957 8.8467C418.039 8.66871 420.167 9.43192 422.321 11.1552C424.476 12.8577 424.989 15.1873 423.889 18.0834C424.591 18.0834 425.269 17.2999 425.995 15.6968C426.697 14.1112 426.885 12.8182 426.58 11.8397C427.939 11.7615 428.898 12.0928 429.412 12.8577C429.953 13.6405 430.279 14.1873 430.418 14.5212C431.472 13.6216 431.87 12.8773 431.636 12.3287C431.427 11.7615 431.003 11.175 430.418 10.5091C437.575 12.5166 442.553 7.42885 444.133 2.09371C440.332 8.69728 415.139 4.08097 408.887 3.05162C400.205 1.64182 394.166 4.20732 390.772 10.744C391.099 9.17774 391.592 7.37676 392.224 5.32258C392.858 3.28724 392.013 1.56559 389.673 0.19646C387.309 1.56559 386.398 3.28724 386.982 5.32258C387.544 7.3765 388.013 9.17801 388.386 10.744C385.038 4.20732 379.002 1.64261 370.271 3.05135C363.578 4.14736 339.293 8.97702 335.026 2.09344C336.723 7.42063 341.495 12.5287 348.742 10.5091C348.202 11.1752 347.802 11.7618 347.594 12.3287C347.359 12.8771 347.734 13.6216 348.743 14.5209C348.927 14.1871 349.278 13.6407 349.77 12.8577C350.283 12.0928 351.22 11.7618 352.578 11.8394C352.227 12.8186 352.437 14.1109 353.21 15.6968C353.982 17.2999 354.709 18.0837 355.411 18.0834C354.264 15.1871 354.755 12.8577 356.882 11.1555C358.99 9.43166 361.168 8.66898 363.342 8.8467C358.429 14.2866 357.515 18.8072 360.652 22.4078C363.79 26.0296 367.089 27.692 370.553 27.4387C375.443 26.8517 377.902 24.7779 377.902 21.1761C377.902 20.4515 378.184 19.8438 378.744 19.3756C379.329 18.9065 380.454 19.1401 382.136 20.0989C382.325 17.5744 381.458 16.0877 379.561 15.6751C377.668 15.2661 376.123 14.0126 374.95 11.96C374.063 13.8951 372.682 15.1084 370.787 15.5587C368.89 16.0285 368.071 17.534 368.283 20.0989C368.844 19.4744 369.709 19.0235 370.927 18.7503C372.143 18.4555 372.963 19.0233 373.361 20.4317C373.174 22.0373 372.073 22.9564 370.013 23.1917C369.405 23.3087 368.328 22.8789 366.785 21.9004C365.24 20.9217 364.444 19.3752 364.444 17.2819C364.445 15.3242 365.471 13.2886 367.508 11.1748C369.548 9.05791 372.026 8.08225 374.95 8.27871C378.367 8.43389 381.482 9.7642 384.288 12.2703C387.12 14.7764 387.847 18.5931 386.536 23.7596C385.79 26.4018 384.244 28.7324 381.856 30.7264C379.492 32.7424 376.474 33.682 372.821 33.5643C369.08 33.4861 363.976 31.9805 357.563 29.0033C351.127 26.0489 343.192 22.2135 333.737 17.515C325.593 13.27 318.151 9.64738 311.387 6.67349C304.622 3.69819 298.96 2.21025 294.444 2.21025C289.833 2.20981 286.018 3.42429 283.022 5.87025C280.025 8.31833 278.389 10.6066 278.061 12.759C277.639 10.6066 275.954 8.31831 272.983 5.87041C270.011 3.42401 266.265 2.21025 261.748 2.20998C257.115 2.20998 251.472 3.69848 244.781 6.67325C238.116 9.62619 230.735 13.2138 222.572 17.4204V17.4245Z" fill="#BCA48D" fill-opacity="0.1"/>
</svg>
