<svg width="1250" height="60" viewBox="0 0 1250 60" fill="none" xmlns="http://www.w3.org/2000/svg">
<path fill-rule="evenodd" clip-rule="evenodd" d="M312.601 26.1368C299.452 33.111 288.402 38.8158 279.496 43.2167C270.489 47.6736 263.421 49.9375 258.294 50.0559C253.098 50.2326 248.791 48.8217 245.408 45.7972C241.99 42.8042 239.887 39.3107 239.034 35.3466C237.059 27.597 238.046 21.8713 241.99 18.116C245.933 14.3558 250.309 12.3614 255.138 12.1254C259.279 11.8291 262.798 13.2995 265.624 16.4716C268.452 19.6397 269.866 22.6917 269.866 25.6285C269.866 28.7725 268.778 31.0902 266.642 32.5598C264.475 34.0259 262.96 34.6726 262.041 34.4937C259.116 34.1452 257.54 32.7643 257.342 30.3553C257.899 28.241 259.046 27.3928 260.694 27.8316C262.374 28.2414 263.685 28.9176 264.668 29.8582C264.834 26.0124 263.584 23.7507 260.889 23.0469C258.196 22.371 256.287 20.5495 255.138 17.6461C253.396 20.7262 251.226 22.6075 248.632 23.2225C246.032 23.8413 244.817 26.0679 245.011 29.8586C247.316 28.4181 248.893 28.0658 249.714 28.773C250.567 29.4752 250.995 30.3857 250.995 31.4737C250.995 34.2895 252.014 36.4628 254.118 38.0197C256.191 39.5746 258.654 40.5125 261.482 40.8651C266.211 41.2456 270.782 38.7531 275.155 33.321C279.526 27.9191 278.344 21.1383 271.607 12.9794C274.532 12.7145 277.523 13.8562 280.545 16.4431C283.571 18.9942 284.297 22.4868 282.751 26.8316C283.736 26.8316 284.69 25.6589 285.706 23.2507C286.696 20.8736 286.957 18.9353 286.529 17.4691C288.437 17.3499 289.785 17.8503 290.509 18.9947C291.26 20.168 291.723 20.9912 291.922 21.4912C293.399 20.1401 293.957 19.0258 293.631 18.2025C293.333 17.3498 292.741 16.4716 291.923 15.4716C301.97 18.4803 308.961 10.852 311.186 2.84892C305.839 12.7543 270.458 5.82901 261.679 4.28804C249.481 2.17149 241.003 6.01772 236.24 15.8235C236.699 13.4765 237.387 10.7731 238.278 7.69186C239.162 4.63844 237.981 2.05568 234.691 0C231.373 2.05568 230.089 4.63844 230.912 7.69186C231.703 10.7731 232.359 13.4766 232.885 15.8232C228.186 6.01734 219.703 2.17188 207.444 4.28804C198.039 5.9306 163.936 13.1757 157.94 2.84851C160.326 10.8407 167.025 18.5006 177.199 15.4716C176.446 16.4712 175.887 17.3502 175.594 18.2025C175.262 19.0258 175.79 20.1401 177.201 21.4912C177.465 20.9909 177.958 20.1683 178.648 18.9939C179.372 17.8506 180.687 17.3502 182.594 17.4687C182.098 18.9349 182.394 20.8736 183.48 23.2507C184.565 25.6587 185.584 26.8319 186.569 26.8316C184.96 22.4864 185.649 18.9946 188.64 16.4431C191.6 13.8565 194.658 12.7149 197.712 12.9794C190.811 21.1379 189.529 27.9195 193.936 33.321C198.338 38.7527 202.975 41.2456 207.838 40.8651C214.707 39.9846 218.156 36.8738 218.156 31.4741C218.156 30.3854 218.554 29.4756 219.342 28.773C220.164 28.0658 221.741 28.4181 224.108 29.8586C224.372 26.0679 223.154 23.8417 220.489 23.2225C217.83 22.6071 215.66 20.7262 214.017 17.6457C212.768 20.5491 210.83 22.371 208.166 23.0469C205.505 23.7499 204.354 26.012 204.648 29.8582C205.439 28.9172 206.654 28.2414 208.363 27.8312C210.074 27.392 211.225 28.2416 211.781 30.3553C211.517 32.7643 209.974 34.1452 207.083 34.4933C206.229 34.6726 204.714 34.0263 202.547 32.5598C200.374 31.0902 199.257 28.7733 199.257 25.6285C199.257 22.6917 200.705 19.6401 203.563 16.4716C206.425 13.2983 209.91 11.8299 214.017 12.1258C218.816 12.3614 223.189 14.3566 227.131 18.116C231.111 21.8717 232.129 27.597 230.288 35.347C229.238 39.3103 227.069 42.8046 223.712 45.7972C220.393 48.8213 216.156 50.2322 211.027 50.0566C205.765 49.9379 198.603 47.6736 189.596 43.2167C180.554 38.7813 169.412 33.029 156.136 25.9819C144.694 19.6108 134.241 14.1788 124.742 9.71822C115.241 5.25314 107.285 3.02226 100.943 3.02226C94.4674 3.02187 89.1086 4.84332 84.8985 8.51331C80.696 12.184 78.3952 15.6198 77.9355 18.8494C77.342 15.6198 74.9747 12.184 70.8013 8.51331C66.6278 4.84332 61.3684 3.02226 55.0204 3.02226C48.5141 3.02187 40.5877 5.25274 31.191 9.71822C21.8279 14.1442 11.466 19.5273 0 25.8349V32.8846C13.0966 25.6677 24.1194 19.9322 32.9977 15.6503C41.9747 11.3622 49.0374 9.13137 54.2332 8.95246C59.5537 8.60233 63.8956 9.92313 67.1868 12.9475C70.5033 15.9415 72.6079 19.4654 73.496 23.486C75.501 31.2045 74.4823 36.9625 70.5028 40.7204C66.5277 44.4772 62.1543 46.5322 57.4213 46.8837C53.1822 47.0638 49.6663 45.5341 46.8687 42.3645C44.0763 39.164 42.6957 36.1076 42.6957 33.2049C42.6957 30.0932 43.7484 27.8316 45.8505 26.3631C47.9901 24.8931 49.5319 24.2198 50.4884 24.339C53.3779 24.7458 54.9538 26.1304 55.219 28.4763C54.6277 30.6477 53.4786 31.5301 51.8037 31.0902C50.0917 30.6481 48.7777 30.0023 47.8887 29.1533C47.6937 32.9376 48.9427 35.1696 51.6041 35.8167C54.2662 36.4933 56.2065 38.2843 57.4213 41.1899C59.0962 38.1629 61.2345 36.2865 63.864 35.614C66.494 34.9053 67.7125 32.7643 67.5471 29.1533C65.1465 30.532 63.5673 30.8274 62.746 30.0635C61.9568 29.2988 61.5633 28.3884 61.5633 27.3613C61.5633 24.6048 60.5113 22.4585 58.3751 20.9311C56.2719 19.433 53.8372 18.4957 51.078 18.1423C46.2483 17.7036 41.6771 20.1682 37.3386 25.5427C32.9984 30.944 34.2153 37.7527 40.9523 46.0021C37.9291 46.1822 34.9065 45.0054 31.9125 42.452C28.889 39.8945 28.1688 36.4625 29.7783 32.1774C28.8246 32.1774 27.8396 33.3211 26.789 35.614C25.7686 37.9001 25.5052 39.8088 26.0322 41.3651C24.029 41.5418 22.6753 41.0418 21.99 39.8685C21.2669 38.6963 20.8349 37.8414 20.6392 37.3121C19.0958 38.6963 18.4719 39.7809 18.8049 40.6008C19.1286 41.3945 19.72 42.3055 20.6392 43.361C10.5674 40.4828 3.34599 47.9832 1.37816 56.1623C5.94982 46.0457 42.4296 53.1085 50.7821 54.5759C62.975 56.7177 71.4917 52.9334 76.2898 43.1852C75.7636 45.4171 75.0729 48.0881 74.2201 51.1713C73.3652 54.2823 74.5787 56.8672 77.936 58.9213C81.2214 56.8664 82.4369 54.2826 81.5812 51.1709C80.757 48.0881 80.1008 45.4175 79.6782 43.1848C84.2763 52.933 92.7276 56.7177 104.984 54.5759C114.274 52.9526 148.726 45.8753 154.59 56.1615C152.157 48.1562 145.58 40.4324 135.323 43.361C136.08 42.3055 136.639 41.3941 136.904 40.6008C137.199 39.7809 136.672 38.6967 135.323 37.3121C134.997 37.841 134.506 38.6967 133.783 39.8685C133.089 41.0415 131.808 41.5418 129.935 41.3651C130.459 39.8084 130.161 37.9001 129.078 35.614C127.963 33.3211 126.944 32.1774 125.992 32.177C127.538 36.4632 126.812 39.8952 123.855 42.452C120.927 45.005 117.903 46.1818 114.815 46.0021C121.684 37.7523 122.932 30.9447 118.529 25.5427C114.123 20.1682 109.522 17.7036 104.689 18.1427C97.8201 18.9353 94.4022 22.0194 94.4022 27.3609C94.4022 28.3872 94.0069 29.2992 93.1844 30.0631C92.3965 30.8275 90.818 30.5324 88.42 29.1533C88.0899 32.7643 89.2703 34.9053 91.9359 35.614C94.5984 36.2865 96.8018 38.1629 98.5432 41.1899C99.6924 38.2839 101.602 36.4937 104.263 35.8169C106.923 35.1696 108.141 32.9384 107.88 29.1533C107.123 30.0019 105.872 30.6481 104.162 31.0902C102.452 31.5301 101.336 30.6481 100.747 28.4767C100.943 26.13 102.521 24.7466 105.479 24.3386C106.234 24.2198 107.745 24.8935 109.95 26.3631C112.152 27.832 113.269 30.0936 113.269 33.2049C113.269 36.1076 111.825 39.1644 108.928 42.3645C106.038 45.5333 102.586 47.0641 98.5432 46.884C93.6478 46.5318 89.2407 44.4772 85.2993 40.7208C81.351 36.9621 80.3306 31.2049 82.274 23.486C83.2245 19.465 85.3606 15.9412 88.7158 12.9475C92.0682 9.92274 96.3072 8.60233 101.535 8.95246C106.793 9.01147 113.894 11.2442 122.869 15.7073C131.808 20.1402 142.888 25.9247 156.136 33.0286C167.672 39.223 178.217 44.5975 187.755 49.1141C197.286 53.6372 205.24 55.897 211.585 55.8972C218.028 55.8966 223.322 54.0477 227.526 50.3498C231.734 46.6495 234.137 43.2753 234.692 40.1621C235.154 43.2753 237.487 46.6494 241.693 50.3491C245.901 54.0476 251.163 55.8972 257.54 55.897C263.947 55.8966 271.868 53.6374 281.305 49.1141C290.704 44.6269 301.143 39.2953 312.649 33.1557V33.1464C325.724 25.9449 336.73 20.2229 345.6 15.9398C354.575 11.6518 361.643 9.42351 366.836 9.245C372.16 8.89381 376.499 10.213 379.785 13.2367C383.107 16.2349 385.209 19.7534 386.101 23.7783C388.103 31.4968 387.084 37.2543 383.107 41.0134C379.131 44.768 374.758 46.8274 370.024 47.1752C365.784 47.353 362.267 45.8267 359.47 42.6548C356.678 39.4544 355.297 36.4037 355.297 33.4953C355.297 30.3821 356.348 28.1253 358.453 26.6561C360.59 25.1847 362.134 24.5113 363.088 24.6283C365.98 25.0406 367.557 26.4211 367.819 28.7692C367.228 30.9392 366.08 31.8242 364.4 31.3825C362.694 30.9396 361.38 30.2964 360.489 29.4438C360.295 33.2306 361.542 35.4634 364.207 36.1074C366.868 36.784 368.807 38.5747 370.024 41.4792C371.7 38.4551 373.838 36.5765 376.464 35.9039C379.094 35.1976 380.313 33.0554 380.149 29.4438C377.747 30.8235 376.17 31.1181 375.346 30.3538C374.56 29.5926 374.164 28.6836 374.164 27.6543C374.164 24.8937 373.113 22.75 370.973 21.2249C368.874 19.7259 366.442 18.786 363.681 18.4342C358.847 17.9955 354.279 20.4602 349.94 25.835C345.6 31.2366 346.815 38.0473 353.555 46.2951C350.53 46.4717 347.509 45.2984 344.517 42.7439C341.493 40.1901 340.768 36.7555 342.379 32.4701C341.427 32.4697 340.44 33.6107 339.389 35.9035C338.368 38.1928 338.107 40.0991 338.633 41.6556C336.625 41.8337 335.278 41.3349 334.591 40.1585C333.868 38.986 333.438 38.1338 333.244 37.6047C331.699 38.986 331.073 40.071 331.403 40.8939C331.729 41.6872 332.323 42.5976 333.244 43.6552C323.17 40.7757 315.946 48.274 313.981 56.452C318.551 46.3353 355.031 53.4001 363.385 54.8666C375.579 57.0129 384.093 53.2241 388.892 43.4767C388.363 45.7082 387.673 48.3801 386.82 51.4616C385.966 54.574 387.182 57.1568 390.536 59.2121C393.82 57.1565 395.039 54.574 394.183 51.4616C393.36 48.3797 392.704 45.7082 392.277 43.4763C396.88 53.2248 405.327 57.0125 417.587 54.8666C426.877 53.2451 461.328 46.1691 467.191 56.452C464.76 48.4436 458.182 40.7239 447.924 43.6552C448.685 42.5972 449.24 41.6868 449.505 40.8939C449.8 40.071 449.274 38.9864 447.925 37.604C447.597 38.1325 447.104 38.9864 446.386 40.1585C445.691 41.3349 444.409 41.8337 442.537 41.6556C443.062 40.0995 442.766 38.1928 441.679 35.9043C440.564 33.6107 439.546 32.4701 438.59 32.4708C440.136 36.7551 439.413 40.1897 436.456 42.7439C433.531 45.2984 430.504 46.4725 427.414 46.2955C434.285 38.0465 435.535 31.2362 431.129 25.8354C426.727 20.4598 422.121 17.9955 417.294 18.4342C410.42 19.2268 407 22.3091 407 27.6539C407.001 28.6832 406.61 29.5926 405.786 30.3542C404.998 31.1175 403.417 30.8231 401.021 29.4438C400.692 33.0558 401.877 35.1976 404.539 35.9035C407.199 36.5769 409.404 38.4563 411.144 41.4792C412.294 38.575 414.2 36.7852 416.864 36.1074C419.526 35.4634 420.745 33.2306 420.481 29.4438C419.722 30.2956 418.476 30.9392 416.765 31.3829C415.053 31.8238 413.938 30.9392 413.348 28.77C413.545 26.4207 415.12 25.041 418.08 24.6283C418.836 24.5107 420.348 25.1851 422.551 26.6561C424.754 28.1253 425.872 30.3829 425.872 33.4957C425.872 36.4029 424.423 39.4548 421.532 42.6556C418.641 45.8266 415.187 47.3522 411.144 47.1752C406.247 46.8266 401.842 44.7683 397.898 41.013C393.954 37.254 392.933 31.4968 394.874 23.7786C395.827 19.753 397.965 16.2349 401.316 13.236C404.668 10.2127 408.908 8.89355 414.135 9.245C419.394 9.30282 426.495 11.536 435.468 15.9984C444.409 20.4323 455.487 26.2136 468.732 33.3193C480.27 39.5149 490.823 44.8861 500.353 49.4079C509.889 53.9294 517.841 56.1877 524.188 56.1877C530.628 56.1873 535.922 54.3418 540.128 50.6417C544.337 46.9439 546.735 43.5654 547.294 40.4521C547.756 43.565 550.088 46.9439 554.295 50.6421C558.505 54.3418 563.761 56.1877 570.14 56.1873C576.549 56.1873 584.47 53.9297 593.906 49.4075C603.304 44.9176 613.743 39.586 625.253 33.4472L625.253 33.3881C638.129 26.3053 648.98 20.6628 657.745 16.4326C666.721 12.1447 673.786 9.91425 678.982 9.73971C684.305 9.3856 688.643 10.7108 691.93 13.7312C695.252 16.726 697.353 20.2497 698.241 24.2711C700.25 31.9937 699.226 37.7473 695.252 41.5059C691.272 45.2619 686.902 47.3184 682.17 47.6706C677.93 47.8485 674.411 46.3203 671.616 43.1492C668.821 39.9481 667.442 36.8949 667.442 33.9882C667.442 30.8772 668.495 28.6167 670.6 27.1486C672.736 25.6787 674.278 25.0064 675.235 25.123C678.125 25.5339 679.702 26.9117 679.965 29.2622C679.375 31.4339 678.223 32.3156 676.548 31.8746C674.839 31.4333 673.522 30.7874 672.634 29.9384C672.441 33.7269 673.688 35.9562 676.352 36.6021C679.014 37.2784 680.952 39.0694 682.17 41.9765C683.845 38.951 685.983 37.0727 688.611 36.3971C691.242 35.6926 692.457 33.5487 692.292 29.9381C689.893 31.3171 688.315 31.611 687.49 30.8487C686.703 30.0831 686.31 29.176 686.31 28.1475C686.31 25.3865 685.26 23.2437 683.12 21.7169C681.019 20.2192 678.584 19.2827 675.822 18.9297C670.991 18.4868 666.424 20.953 662.085 26.3264C657.745 31.728 658.959 38.5379 665.7 46.7932C662.677 46.9672 659.648 45.7932 656.659 43.2379C653.636 40.6848 652.916 37.2483 654.523 32.9622C653.571 32.9618 652.586 34.1047 651.534 36.3969C650.514 38.6879 650.25 40.5938 650.776 42.1513C648.772 42.3263 647.424 41.8284 646.732 40.6526C646.013 39.4803 645.581 38.6292 645.387 38.0991C643.843 39.4803 643.218 40.5671 643.544 41.389C643.876 42.1808 644.466 43.0909 645.387 44.148C635.309 41.2743 628.092 48.7721 626.126 56.949C630.694 46.8307 667.174 53.8921 675.529 55.3602C687.727 57.5061 696.235 53.7199 701.036 43.9713C700.51 46.2029 699.82 48.8718 698.966 51.9571C698.111 55.0685 699.327 57.6516 702.68 59.705C705.966 57.6512 707.182 55.0688 706.329 51.9571C705.507 48.8714 704.849 46.2029 704.421 43.9713C709.024 53.7195 717.47 57.5069 729.732 55.3609C739.018 53.7365 773.475 46.662 779.334 56.949C776.904 48.9417 770.329 41.2194 760.071 44.1476C760.826 43.0902 761.387 42.1808 761.649 41.3894C761.944 40.5672 761.419 39.4799 760.072 38.0991C759.746 38.6292 759.248 39.4803 758.529 40.653C757.836 41.8284 756.554 42.327 754.684 42.1518C755.206 40.5938 754.913 38.6882 753.826 36.3971C752.708 34.1047 751.688 32.9622 750.735 32.9622C752.28 37.2483 751.558 40.6848 748.6 43.2379C745.677 45.7932 742.652 46.9676 739.558 46.7932C746.43 38.5379 747.679 31.7284 743.274 26.3264C738.869 20.953 734.27 18.4868 729.437 18.9297C722.566 19.7206 719.149 22.8046 719.149 28.1467C719.149 29.176 718.754 30.0831 717.931 30.8487C717.143 31.611 715.561 31.3171 713.166 29.9384C712.837 33.5482 714.022 35.693 716.683 36.3971C719.343 37.0723 721.546 38.9522 723.288 41.9765C724.44 39.069 726.348 37.2784 729.006 36.6021C731.671 35.9558 732.889 33.7273 732.624 29.9384C731.869 30.787 730.62 31.4343 728.908 31.8746C727.199 32.3152 726.084 31.4337 725.491 29.2622C725.691 26.9117 727.267 25.5342 730.224 25.1226C730.982 25.0061 732.492 25.6791 734.693 27.1486C736.898 28.6155 738.015 30.878 738.014 33.9885C738.015 36.8949 736.572 39.9483 733.677 43.1488C730.784 46.3203 727.332 47.8485 723.289 47.6706C718.391 47.318 713.989 45.2619 710.044 41.5059C706.095 37.7473 705.078 31.9937 707.014 24.2715C707.97 20.2497 710.106 16.726 713.46 13.7312C716.814 10.7101 721.055 9.3856 726.278 9.73971C731.539 9.79873 738.64 12.0288 747.611 16.4924C756.554 20.9233 767.632 26.7072 780.878 33.8148C792.414 40.0112 802.968 45.3816 812.501 49.9022C822.03 54.4215 829.985 56.6846 836.329 56.6846C842.773 56.6846 848.065 54.832 852.273 51.1346C856.479 47.4346 858.881 44.0582 859.439 40.9487C859.902 44.0582 862.235 47.435 866.441 51.1349C870.648 54.8316 875.909 56.6842 882.283 56.6846C888.693 56.6842 896.615 54.4211 906.049 49.9022C915.451 45.4115 925.891 40.0807 937.397 33.9415L937.397 33.9309C950.473 26.7342 961.477 21.0078 970.347 16.7247C979.317 12.4405 986.385 10.2039 991.582 10.0317C996.905 9.68028 1001.25 10.9991 1004.53 14.0239C1007.85 17.0199 1009.96 20.5416 1010.84 24.5624C1012.85 32.285 1011.83 38.0396 1007.85 41.796C1003.88 45.5558 999.504 47.6107 994.77 47.9634C990.53 48.1382 987.012 46.61 984.219 43.4408C981.425 40.2399 980.044 37.1896 980.043 34.2831C980.044 31.1688 981.095 28.9094 983.2 27.4402C985.335 25.9736 986.879 25.297 987.836 25.4158C990.725 25.8275 992.303 27.2064 992.567 29.5541C991.976 31.7276 990.824 32.6079 989.147 32.1666C987.441 31.7268 986.122 31.082 985.237 30.2332C985.04 34.0163 986.288 36.249 988.952 36.8956C991.613 37.5697 993.554 39.3607 994.77 42.2682C996.448 39.2408 998.583 37.3652 1001.21 36.6877C1003.84 35.9843 1005.06 33.8411 1004.89 30.2335C1002.49 31.6116 1000.92 31.903 1000.1 31.1403C999.304 30.3771 998.913 29.467 998.913 28.438C998.913 25.679 997.861 23.5327 995.721 22.0127C993.618 20.512 991.186 19.5729 988.422 19.2199C983.593 18.7807 979.025 21.2446 974.683 26.6169C970.348 32.0204 971.563 38.8326 978.301 47.083C975.279 47.2566 972.253 46.0826 969.259 43.5273C966.237 40.9731 965.515 37.5408 967.126 33.2528C966.171 33.2524 965.186 34.399 964.136 36.6873C963.117 38.9776 962.851 40.8852 963.38 42.443C961.373 42.6194 960.024 42.1194 959.336 40.9479C958.614 39.7723 958.184 38.9205 957.987 38.3926C956.443 39.7723 955.817 40.8577 956.147 41.6772C956.476 42.4731 957.066 43.3825 957.987 44.4393C947.916 41.5614 940.693 49.0631 938.727 57.2394C943.296 47.1224 979.775 54.1868 988.13 55.6548C1000.32 57.7986 1008.84 54.0108 1013.64 44.2634C1013.11 46.4939 1012.42 49.166 1011.57 52.2462C1010.72 55.3591 1011.93 57.9437 1015.28 60C1018.57 57.9433 1019.79 55.3597 1018.93 52.2462C1018.11 49.1657 1017.45 46.4939 1017.02 44.2634C1021.63 54.0108 1030.07 57.7996 1042.33 55.6548C1051.62 54.0312 1086.07 46.9537 1091.93 57.2388C1089.5 49.2322 1082.93 41.5114 1072.67 44.439C1073.43 43.3821 1073.99 42.4731 1074.25 41.6772C1074.55 40.8565 1074.02 39.7731 1072.67 38.3918C1072.35 38.9205 1071.85 39.7727 1071.13 40.9479C1070.44 42.1194 1069.15 42.6198 1067.28 42.443C1067.81 40.8844 1067.51 38.978 1066.43 36.6877C1065.31 34.3982 1064.29 33.2532 1063.34 33.2532C1064.88 37.5408 1064.16 40.9727 1061.2 43.5269C1058.27 46.0826 1055.25 47.2566 1052.16 47.0826C1059.03 38.8325 1060.28 32.0208 1055.87 26.6169C1051.47 21.2446 1046.87 18.7811 1042.04 19.2199C1035.17 20.0135 1031.75 23.097 1031.75 28.438C1031.75 29.4674 1031.35 30.3771 1030.53 31.1403C1029.74 31.903 1028.16 31.6114 1025.77 30.2332C1025.44 33.8407 1026.62 35.9836 1029.28 36.6877C1031.95 37.3644 1034.15 39.2416 1035.89 42.2682C1037.04 39.3607 1038.95 37.5697 1041.61 36.8956C1044.27 36.2494 1045.49 34.0167 1045.22 30.2332C1044.47 31.082 1043.22 31.7276 1041.51 32.167C1039.81 32.6079 1038.69 31.7278 1038.09 29.5545C1038.29 27.206 1039.87 25.8275 1042.83 25.4158C1043.58 25.2962 1045.1 25.974 1047.29 27.4406C1049.5 28.909 1050.62 31.1692 1050.62 34.2829C1050.62 37.1892 1049.17 40.2397 1046.28 43.4408C1043.39 46.61 1039.93 48.1382 1035.89 47.9634C1030.99 47.6107 1026.59 45.5558 1022.64 41.7964C1018.7 38.0392 1017.68 32.2854 1019.62 24.562C1020.57 20.5416 1022.71 17.0201 1026.06 14.0243C1029.42 10.9987 1033.66 9.68028 1038.88 10.0317C1044.14 10.0904 1051.24 12.3239 1060.21 16.7814C1069.16 21.2172 1080.23 27.0004 1093.48 34.1035C1105.02 40.2994 1115.57 45.6713 1125.1 50.1936C1134.63 54.7154 1142.59 56.9759 1148.94 56.9759C1155.38 56.9756 1160.67 55.1241 1164.87 51.424C1169.08 47.7262 1171.48 44.3483 1172.04 41.2393C1172.5 44.3483 1174.83 47.7262 1179.04 51.424C1183.25 55.1236 1188.51 56.9759 1194.88 56.9759C1201.3 56.9756 1209.22 54.7154 1218.65 50.1936C1228.05 45.7029 1238.49 40.3717 1250 34.2331L1250 27.1873C1236.82 34.1741 1225.76 39.8874 1216.84 44.2912C1207.84 48.7559 1200.77 51.0139 1195.64 51.1338C1190.45 51.3078 1186.14 49.9002 1182.76 46.8742C1179.34 43.8818 1177.23 40.3874 1176.38 36.4242C1174.41 28.6726 1175.39 22.9507 1179.34 19.1909C1183.28 15.4341 1187.65 13.4386 1192.49 13.2017C1196.62 12.9089 1200.14 14.3761 1202.97 17.5488C1205.8 20.719 1207.21 23.7718 1207.21 26.7064C1207.22 29.8489 1206.13 32.1669 1203.99 33.6358C1201.82 35.1038 1200.31 35.7478 1199.39 35.5726C1196.46 35.2211 1194.88 33.8411 1194.69 31.4323C1195.25 29.3207 1196.39 28.4658 1198.04 28.9094C1199.71 29.3207 1201.03 29.9971 1202.02 30.9342C1202.18 27.0884 1200.93 24.8312 1198.24 24.124C1195.54 23.4485 1193.63 21.6278 1192.49 18.7217C1190.74 21.8036 1188.57 23.6837 1185.98 24.2993C1183.38 24.9161 1182.16 27.1496 1182.36 30.9342C1184.66 29.494 1186.24 29.1451 1187.06 29.8496C1187.91 30.5516 1188.34 31.4659 1188.34 32.5505C1188.34 35.3681 1189.36 37.5408 1191.46 39.0961C1193.54 40.6494 1196 41.5919 1198.83 41.945C1203.56 42.3269 1208.13 39.8309 1212.5 34.3982C1216.87 28.9993 1215.69 22.215 1208.96 14.0536C1211.88 13.7901 1214.87 14.9345 1217.89 17.5172C1220.92 20.069 1221.64 23.5657 1220.1 27.9135C1221.09 27.9131 1222.04 26.738 1223.06 24.3304C1224.04 21.9511 1224.31 20.0135 1223.88 18.5488C1225.78 18.4254 1227.13 18.9307 1227.85 20.0695C1228.61 21.2446 1229.07 22.0706 1229.27 22.5696C1230.75 21.2172 1231.3 20.1055 1230.98 19.2781C1230.68 18.425 1230.09 17.5488 1229.27 16.5494C1239.32 19.5578 1246.31 11.9284 1248.53 3.92532C1243.19 13.8329 1207.8 6.90657 1199.02 5.36441C1186.83 3.2501 1178.35 7.09412 1173.58 16.9017C1174.05 14.5548 1174.74 11.8505 1175.62 8.76968C1176.51 5.71559 1175.33 3.13247 1172.04 1.07559C1168.72 3.13167 1167.44 5.71585 1168.26 8.76927C1169.05 11.8513 1169.71 14.5548 1170.23 16.9017C1165.53 7.09412 1157.05 3.24931 1144.79 5.36441C1135.39 7.00657 1101.28 14.2532 1095.29 3.92491C1097.68 11.9175 1104.37 19.5777 1114.55 16.5498C1113.79 17.5484 1113.24 18.4254 1112.94 19.2781C1112.61 20.1055 1113.14 21.2176 1114.55 22.5696C1114.82 22.0698 1115.3 21.2446 1116 20.0695C1116.72 18.9303 1118.03 18.4254 1119.94 18.5492C1119.45 20.0127 1119.74 21.9514 1120.83 24.3304C1121.91 26.7384 1122.93 27.9135 1123.92 27.9139C1122.31 23.5654 1123 20.0698 1125.99 17.5172C1128.95 14.9345 1132 13.7901 1135.06 14.0536C1128.16 22.215 1126.88 28.9996 1131.28 34.399C1135.68 39.8313 1140.32 42.3272 1145.18 41.9453C1152.06 41.0622 1155.51 37.9508 1155.51 32.5505C1155.51 31.4659 1155.9 30.552 1156.69 29.8485C1157.51 29.1448 1159.09 29.494 1161.46 30.9342C1161.72 27.1488 1160.5 24.9161 1157.84 24.2999C1155.18 23.6837 1153.01 21.8041 1151.36 18.7221C1150.11 21.6278 1148.17 23.4485 1145.51 24.124C1142.85 24.8319 1141.7 27.0884 1141.99 30.9342C1142.79 29.9971 1144 29.3207 1145.71 28.9094C1147.42 28.4658 1148.57 29.3207 1149.13 31.4323C1148.87 33.8407 1147.32 35.2211 1144.43 35.5726C1143.57 35.7474 1142.06 35.1038 1139.89 33.6347C1137.72 32.1666 1136.61 29.8489 1136.61 26.7064C1136.61 23.7718 1138.05 20.719 1140.91 17.5488C1143.77 14.3765 1147.25 12.9096 1151.36 13.2017C1156.17 13.4378 1160.54 15.4341 1164.48 19.1909C1168.46 22.9503 1169.47 28.673 1167.64 36.4242C1166.58 40.3874 1164.41 43.8821 1161.06 46.8742C1157.74 49.9002 1153.5 51.309 1148.37 51.1338C1143.11 51.0131 1135.95 48.7547 1126.94 44.2912C1117.9 39.8592 1106.76 34.1035 1093.48 27.0595C1082.04 20.6883 1071.59 15.2597 1062.09 10.7942C1052.59 6.33431 1044.63 4.10089 1038.29 4.10089C1031.81 4.10089 1026.46 5.92301 1022.25 9.59194C1018.04 13.2618 1015.74 16.6976 1015.28 19.9262C1014.69 16.6976 1012.32 13.2622 1008.15 9.59194C1003.98 5.92301 998.713 4.10089 992.368 4.10089C985.861 4.10089 977.941 6.33471 968.539 10.7942C959.18 15.2224 948.816 20.6033 937.348 26.9131V26.9224C924.193 33.8973 913.151 39.6015 904.243 43.9997C895.237 48.4644 888.166 50.7228 883.042 50.8408C877.846 51.0183 873.541 49.6077 870.153 46.5847C866.736 43.5907 864.634 40.0955 863.776 36.1335C861.805 28.3833 862.79 22.6596 866.736 18.9005C870.682 15.1418 875.05 13.1457 879.881 12.911C884.026 12.6178 887.542 14.0854 890.368 17.2562C893.197 20.4257 894.61 23.4799 894.61 26.4171C894.61 29.5589 893.525 31.8748 891.389 33.3443C889.217 34.8139 887.706 35.4571 886.785 35.2823C883.864 34.9297 882.283 33.5491 882.089 31.142C882.644 29.0277 883.794 28.1759 885.439 28.6173C887.117 29.0281 888.427 29.7037 889.419 30.642C889.58 26.7999 888.332 24.5371 885.635 23.8326C882.944 23.1566 881.032 21.3367 879.881 18.431C878.144 21.5123 875.974 23.3934 873.379 24.0078C870.781 24.6243 869.564 26.8555 869.76 30.6416C872.06 29.206 873.637 28.8529 874.46 29.5582C875.316 30.2631 875.742 31.1705 875.742 32.2586C875.742 35.0756 876.763 37.2489 878.867 38.8052C880.936 40.3598 883.402 41.3004 886.23 41.6531C890.961 42.0338 895.531 39.5384 899.902 34.1057C904.275 28.704 903.092 21.9236 896.35 13.7625C899.274 13.5012 902.268 14.643 905.295 17.2253C908.318 19.7818 909.041 23.2731 907.5 27.6206C908.48 27.6206 909.431 26.4454 910.454 24.0385C911.441 21.66 911.702 19.7212 911.276 18.2524C913.178 18.1389 914.529 18.6343 915.254 19.7814C916.01 20.9535 916.47 21.7776 916.667 22.278C918.146 20.9242 918.704 19.8088 918.378 18.9863C918.082 18.1388 917.489 17.2562 916.667 16.2591C926.716 19.2667 933.71 11.6388 935.929 3.63302C930.585 13.5407 895.204 6.61506 886.425 5.07065C874.23 2.9586 865.749 6.80751 860.984 16.6095C861.441 14.2602 862.134 11.5617 863.022 8.47976C863.909 5.42409 862.727 2.84241 859.439 0.786731C856.117 2.84202 854.833 5.42448 855.659 8.47976C856.447 11.5617 857.107 14.2606 857.634 16.6099C852.931 6.80712 844.451 2.9586 832.192 5.07065C822.784 6.71387 788.679 13.9629 782.684 3.63302C785.071 11.6271 791.774 19.2904 801.948 16.2588C801.192 17.2558 800.634 18.1388 800.336 18.987C800.008 19.8089 800.535 20.9238 801.948 22.2777C802.212 21.7777 802.704 20.9535 803.396 19.7818C804.116 18.6343 805.432 18.1388 807.338 18.2527C806.845 19.7212 807.141 21.6603 808.225 24.0382C809.308 26.4454 810.33 27.6206 811.315 27.6216C809.706 23.2727 810.394 19.7818 813.387 17.2253C816.347 14.6426 819.401 13.5012 822.458 13.7625C815.556 21.9236 814.274 28.7036 818.678 34.1057C823.082 39.5384 827.717 42.0342 832.58 41.6523C839.452 40.7722 842.905 37.6587 842.905 32.2586C842.906 31.1709 843.304 30.2631 844.085 29.5585C844.908 28.8525 846.488 29.2062 848.854 30.642C849.118 26.8552 847.902 24.6243 845.238 24.0078C842.576 23.393 840.405 21.5119 838.762 18.4314C837.514 21.3363 835.574 23.1566 832.911 23.8321C830.25 24.537 829.099 26.8003 829.397 30.642C830.186 29.7037 831.397 29.0281 833.112 28.6168C834.82 28.1759 835.971 29.0277 836.527 31.142C836.264 33.5488 834.722 34.9305 831.827 35.2823C830.973 35.4567 829.462 34.8139 827.292 33.3443C825.122 31.8748 824.005 29.5582 824.005 26.4171C824.005 23.4807 825.453 20.4261 828.31 17.2562C831.17 14.0854 834.654 12.6178 838.762 12.9114C843.564 13.1452 847.932 15.1422 851.878 18.9009C855.856 22.6588 856.876 28.3833 855.036 36.1335C853.982 40.0951 851.815 43.5899 848.46 46.5847C845.142 49.608 840.901 51.0193 835.772 50.8408C830.509 50.7224 823.347 48.464 814.342 43.9997C805.301 39.5681 794.159 33.8149 780.878 26.7687C769.44 20.3964 758.986 14.9651 749.487 10.5035C739.987 6.04067 732.036 3.81086 725.69 3.81086C719.212 3.81086 713.858 5.63125 709.648 9.29859C705.441 12.9711 703.139 16.4046 702.68 19.6359C702.084 16.4042 699.723 12.9711 695.547 9.29859C691.373 5.63151 686.111 3.81085 679.767 3.81045C673.259 3.81165 665.342 6.04094 655.938 10.5035C646.575 14.9321 636.211 20.3138 624.747 26.6243L624.747 26.6683C611.794 33.5338 600.899 39.1575 592.095 43.5053C583.088 47.97 576.019 50.2295 570.893 50.3467C565.702 50.523 561.395 49.114 558.012 46.0896C554.589 43.0985 552.488 39.6027 551.635 35.6395C549.661 27.8886 550.644 22.1641 554.589 18.405C558.537 14.6463 562.908 12.6504 567.737 12.4181C571.883 12.1234 575.398 13.5877 578.226 16.7626C581.054 19.9322 582.466 22.9863 582.466 25.9229C582.465 29.0634 581.381 31.383 579.244 32.8504C577.075 34.3176 575.562 34.9635 574.64 34.7872C571.72 34.4346 570.139 33.0564 569.943 30.6476C570.502 28.5349 571.648 27.6833 573.295 28.1259C574.971 28.5345 576.286 29.212 577.273 30.1484C577.437 26.301 576.184 24.0434 573.494 23.3381C570.799 22.6623 568.891 20.843 567.737 17.9404C566 21.0189 563.83 22.8994 561.23 23.5122C558.635 24.1307 557.418 26.3616 557.617 30.1484C559.916 28.7097 561.494 28.3597 562.315 29.0634C563.169 29.7654 563.597 30.6777 563.597 31.7642C563.598 34.5823 564.615 36.756 566.72 38.3097C568.79 39.8658 571.259 40.8076 574.083 41.1576C578.817 41.538 583.387 39.0447 587.758 33.6112C592.129 28.2116 590.945 21.4299 584.209 13.27C587.133 13.0031 590.123 14.1479 593.147 16.7329C596.175 19.2866 596.895 22.781 595.349 27.1251C596.336 27.1251 597.288 25.9499 598.308 23.5453C599.294 21.1668 599.557 19.2273 599.13 17.7595C601.038 17.6423 602.385 18.1392 603.107 19.2866C603.866 20.4607 604.325 21.281 604.52 21.7818C606 20.4325 606.558 19.316 606.231 18.4931C605.936 17.6423 605.342 16.7626 604.52 15.7636C614.571 18.7749 621.564 11.1433 623.782 3.14057C618.444 13.0459 583.061 6.12145 574.28 4.57743C562.086 2.46273 553.604 6.31098 548.837 16.1159C549.296 13.7666 549.988 11.0651 550.876 7.98388C551.767 4.93085 550.581 2.34838 547.294 0.29469C543.974 2.34838 542.693 4.93085 543.514 7.98388C544.304 11.0647 544.962 13.767 545.486 16.1159C540.784 6.31098 532.306 2.46392 520.044 4.57703C510.643 6.22104 476.535 13.4655 470.543 3.14017C472.926 11.1309 479.628 18.7931 489.806 15.7636C489.048 16.7628 488.486 17.6427 488.194 18.4931C487.863 19.3156 488.391 20.4324 489.807 21.7814C490.066 21.2806 490.559 20.4611 491.251 19.2866C491.971 18.1392 493.287 17.6427 495.194 17.7591C494.701 19.2279 494.996 21.1664 496.082 23.5453C497.166 25.9499 498.186 27.1255 499.172 27.1251C497.562 22.7807 498.251 19.2866 501.239 16.7333C504.2 14.1475 507.259 13.0035 510.311 13.27C503.412 21.4299 502.127 28.2108 506.534 33.6116C510.942 39.0444 515.574 41.538 520.439 41.158C527.308 40.2775 530.761 37.1669 530.761 31.7642C530.761 30.6773 531.157 29.7656 531.944 29.0634C532.765 28.3597 534.346 28.7101 536.708 30.1484C536.973 26.3616 535.756 24.1315 533.091 23.5126C530.433 22.8991 528.262 21.0189 526.616 17.94C525.37 20.8427 523.43 22.6627 520.768 23.3381C518.104 24.0428 516.953 26.301 517.252 30.1484C518.039 29.2116 519.255 28.5353 520.965 28.1255C522.673 27.6833 523.824 28.5349 524.384 30.6476C524.121 33.056 522.575 34.4346 519.682 34.7876C518.827 34.9631 517.315 34.3184 515.148 32.8506C512.978 31.3826 511.86 29.0628 511.86 25.9229C511.86 22.9863 513.302 19.9328 516.163 16.7622C519.028 13.5869 522.508 12.1234 526.616 12.4181C531.414 12.6508 535.79 14.6463 539.731 18.4054C543.708 22.1645 544.729 27.8897 542.888 35.6395C541.84 39.6027 539.669 43.0985 536.314 46.0896C532.995 49.1136 528.755 50.523 523.625 50.3464C518.37 50.2291 511.202 47.9708 502.196 43.5049C493.155 39.0734 482.011 33.3203 468.732 26.2724C457.293 19.905 446.841 14.4711 437.342 10.0102C427.84 5.54728 419.888 3.31538 413.544 3.31538C407.069 3.31471 401.711 5.13644 397.502 8.80537C393.294 12.4775 390.996 15.9099 390.536 19.1386C389.942 15.9099 387.576 12.4775 383.403 8.80562C379.229 5.13602 373.968 3.31537 367.624 3.31497C361.117 3.31497 353.191 5.54772 343.794 10.0099C334.433 14.4393 324.066 19.8208 312.601 26.1307V26.1368Z" fill="#BCA48D" fill-opacity="0.2"/>
</svg>
