<?xml version="1.0" standalone="no"?>
<!DOCTYPE svg PUBLIC "-//W3C//DTD SVG 20010904//EN"
 "http://www.w3.org/TR/2001/REC-SVG-20010904/DTD/svg10.dtd">
<svg version="1.0" xmlns="http://www.w3.org/2000/svg"
 width="74.000000pt" height="74.000000pt" viewBox="0 0 74.000000 74.000000"
 preserveAspectRatio="xMidYMid meet">
<metadata>
Created by potrace 1.14, written by Peter Selinger 2001-2017
</metadata>
<g transform="translate(0.000000,74.000000) scale(0.100000,-0.100000)"
fill="#000000" stroke="none">
<path d="M339 710 c-19 -24 -32 -29 -66 -30 -43 0 -43 0 -43 -37 0 -28 -8 -46
-30 -70 l-31 -33 27 -29 26 -30 29 21 c36 27 36 34 2 71 l-28 30 29 -6 c44 -7
56 1 56 39 0 40 9 42 39 10 l23 -25 24 24 c29 29 30 45 6 66 -33 28 -39 28
-63 -1z"/>
<path d="M430 640 c0 -41 2 -43 53 -43 23 0 21 -9 -7 -36 l-25 -23 31 -30 31
-30 31 31 31 31 -33 29 c-26 24 -32 37 -32 70 l0 41 -40 0 -40 0 0 -40z"/>
<path d="M232 438 c3 -36 6 -42 28 -43 41 -3 50 5 50 46 0 39 0 39 -41 39
l-40 0 3 -42z"/>
<path d="M432 438 c3 -42 4 -42 41 -43 l37 -1 0 43 0 43 -41 0 -40 0 3 -42z"/>
<path d="M337 422 l-27 -28 30 -29 30 -29 30 29 30 29 -27 28 c-15 15 -30 28
-33 28 -3 0 -18 -13 -33 -28z"/>
<path d="M22 188 l2 -73 3 62 4 62 42 -47 c23 -26 48 -53 55 -60 10 -11 12 0
10 55 -1 66 -1 67 -7 18 l-6 -49 -45 52 c-25 28 -48 52 -52 52 -5 0 -7 -33 -6
-72z"/>
<path d="M342 249 c3 -8 13 -38 23 -66 11 -29 22 -53 25 -53 7 0 30 45 30 57
0 4 -6 -2 -14 -12 -12 -17 -15 -15 -31 29 -10 26 -23 49 -28 53 -6 4 -8 0 -5
-8z"/>
<path d="M513 203 c-13 -31 -21 -58 -19 -60 3 -3 20 30 31 62 l7 20 8 -20 c4
-12 3 -23 -4 -27 -7 -5 -4 -8 7 -8 9 0 17 -6 17 -14 0 -7 7 -19 15 -26 8 -7
15 -10 15 -8 0 5 -51 131 -54 135 -1 1 -11 -24 -23 -54z"/>
<path d="M630 251 c21 -6 25 -13 26 -46 3 -79 4 -86 12 -81 4 2 7 31 5 65 -2
58 -1 60 25 64 15 2 0 4 -33 5 -39 0 -51 -2 -35 -7z"/>
<path d="M240 241 c0 -5 -3 -18 -6 -28 -4 -13 -3 -15 4 -4 12 17 27 -3 18 -24
-3 -8 -1 -15 5 -15 5 0 14 -12 20 -26 5 -15 12 -24 16 -21 8 8 -37 127 -48
127 -5 0 -9 -4 -9 -9z"/>
<path d="M426 225 c-9 -26 -7 -32 5 -12 6 10 9 21 6 23 -2 3 -7 -2 -11 -11z"/>
<path d="M211 158 c-6 -17 -9 -33 -7 -35 2 -3 7 6 11 19 4 13 12 26 17 29 7 4
7 9 0 13 -6 3 -15 -8 -21 -26z"/>
<path d="M365 26 c10 -14 19 -26 22 -26 7 0 -17 39 -28 46 -6 3 -3 -5 6 -20z"/>
<path d="M226 27 c3 -10 9 -15 12 -12 3 3 0 11 -7 18 -10 9 -11 8 -5 -6z"/>
<path d="M490 30 c0 -5 5 -10 11 -10 5 0 7 5 4 10 -3 6 -8 10 -11 10 -2 0 -4
-4 -4 -10z"/>
<path d="M440 21 c0 -6 4 -13 10 -16 6 -3 7 1 4 9 -7 18 -14 21 -14 7z"/>
</g>
</svg>
