<svg width="366" height="386" viewBox="0 0 366 386" fill="none" xmlns="http://www.w3.org/2000/svg">
<path d="M183.03 0.825542L152.49 31.3652L183.03 61.9049L213.569 31.3652L183.03 0.825542Z" fill="white"/>
<path d="M109.299 74.5499L78.759 105.09L109.299 135.629L139.838 105.09L109.299 74.5499Z" fill="white"/>
<path d="M256.751 74.8078L226.211 105.347L256.751 135.887L287.29 105.347L256.751 74.8078Z" fill="white"/>
<path d="M183.03 148.784L152.491 179.323L183.03 209.863L213.57 179.323L183.03 148.784Z" fill="white"/>
<path d="M152.49 31.3501H109.3V74.5401H152.49V31.3501Z" fill="white"/>
<path d="M152.49 136.12H109.3V179.31H152.49V136.12Z" fill="white"/>
<path d="M256.76 135.87H213.57V179.06H256.76V135.87Z" fill="white"/>
<path d="M256.76 31.6101H213.57V74.8001H256.76V31.6101Z" fill="white"/>
<path d="M63.74 322.4H62.39L4.38 259.25V322.4H0.5V251.49H8.34998L59.86 308.68V251.49H63.74V322.4Z" fill="white"/>
<path d="M150.25 322.4H141.5L130.58 295.16H107.31L96.48 322.4H92.15L120.75 250.86H121.47L150.25 322.4ZM118.86 266.02L108.76 291.46H129.06L118.86 266.02Z" fill="white"/>
<path d="M164.87 251.49H173.62L196.99 307.87L219.9 251.49H224.23L195.09 323.03H194.37L164.87 251.49Z" fill="white"/>
<path d="M298.56 322.4H289.81L278.89 295.16H255.62L244.79 322.4H240.46L269.06 250.86H269.78L298.56 322.4ZM267.17 266.02L257.07 291.46H277.37L267.17 266.02Z" fill="white"/>
<path d="M365.5 251.49V255.19H341.05V322.4H333.02V255.19H308.48V251.49H365.5Z" fill="white"/>
<path d="M66.4399 360.71V366.91C66.4399 369.44 66.99 371.29 68.08 372.45C69.17 373.61 70.8 374.19 72.98 374.19C73.73 374.19 74.5 374.15 75.3 374.06C76.1 373.98 76.72 373.89 77.15 373.81L77.77 373.68V360.69H80.5699V385.17H77.77V374.92C76.32 375.31 74.6699 375.51 72.8199 375.51C66.6999 375.51 63.63 372.61 63.63 366.82V360.69H66.4399V360.71Z" fill="white"/>
<path d="M116.98 385.19H113.96L110.19 375.78H102.16L98.42 385.19H96.9301L106.8 360.5H107.05L116.98 385.19ZM106.14 365.72L102.65 374.5H109.66L106.14 365.72Z" fill="white"/>
<path d="M135.98 381.08L156.5 360.71H157.12V385.19H154.32V364.86L133.8 385.19H133.18V360.71H135.98V381.08ZM147.98 357.46C148.82 356.87 149.44 356.12 149.83 355.2H148.71C148.38 355.76 147.9 356.22 147.29 356.57C146.68 356.92 146.03 357.1 145.34 357.1C144.01 357.1 143 356.47 142.32 355.2H140.45C140.84 356.24 141.47 357.02 142.33 357.55C143.19 358.08 144.14 358.34 145.18 358.34C146.21 358.34 147.14 358.05 147.98 357.46Z" fill="white"/>
<path d="M193.15 360.71H194.93L185.4 372.23L195.93 385.18H192.44L183.66 374.34L174.69 385.18H172.88L182.75 373.25L172.63 360.7H176.02L184.49 371.13L193.15 360.71Z" fill="white"/>
<path d="M229.87 385.19H226.85L223.08 375.78H215.05L211.31 385.19H209.82L219.69 360.5H219.94L229.87 385.19ZM219.03 365.72L215.54 374.5H222.55L219.03 365.72Z" fill="white"/>
<path d="M263.22 360.71H265.99V385.19H263.22V373.61H248.74V385.19H245.97V360.71H248.74V372.33H263.22V360.71Z" fill="white"/>
<path d="M302.36 385.19H299.34L295.57 375.78H287.54L283.8 385.19H282.31L292.18 360.5H292.43L302.36 385.19ZM291.53 365.72L288.04 374.5H295.05L291.53 365.72Z" fill="white"/>
</svg>
