<svg width="66" height="70" viewBox="0 0 66 70" fill="none" xmlns="http://www.w3.org/2000/svg">
<path d="M33.0052 0.000165514L27.4829 5.56201L33.0051 11.1238L38.5274 5.562L33.0052 0.000165514Z" fill="#BCA48D"/>
<path d="M19.6731 13.4264L14.1509 18.9883L19.6731 24.5501L25.1954 18.9883L19.6731 13.4264Z" fill="#BCA48D"/>
<path d="M46.3357 13.4733L40.8135 19.0352L46.3357 24.597L51.8579 19.0352L46.3357 13.4733Z" fill="#BCA48D"/>
<path d="M33.0052 26.946L27.4829 32.5078L33.0051 38.0697L38.5274 32.5078L33.0052 26.946Z" fill="#BCA48D"/>
<path d="M27.483 5.55908H19.6733V13.4248H27.483V5.55908Z" fill="#BCA48D"/>
<path d="M27.483 24.6396H19.6733V32.5054H27.483V24.6396Z" fill="#BCA48D"/>
<path d="M46.3375 24.5942H38.5278V32.4599H46.3375V24.5942Z" fill="#BCA48D"/>
<path d="M46.3375 5.60645H38.5278V13.4721H46.3375V5.60645Z" fill="#BCA48D"/>
<path d="M11.4352 58.5644H11.1911L0.70159 47.0636V58.5644H0V45.6504H1.41945L10.7336 56.0658V45.6504H11.4352V58.5644Z" fill="#BCA48D"/>
<path d="M27.078 58.5644H25.4958L23.5212 53.6035H19.3135L17.3552 58.5644H16.5723L21.7438 45.5356H21.874L27.078 58.5644ZM21.402 48.2966L19.5757 52.9297H23.2464L21.402 48.2966Z" fill="#BCA48D"/>
<path d="M29.7217 45.6504H31.3039L35.5297 55.9182L39.6723 45.6504H40.4553L35.1861 58.6792H35.0559L29.7217 45.6504Z" fill="#BCA48D"/>
<path d="M53.8959 58.5644H52.3137L50.3391 53.6035H46.1314L44.1731 58.5644H43.3901L48.5617 45.5356H48.6918L53.8959 58.5644ZM48.2199 48.2966L46.3936 52.9297H50.0643L48.2199 48.2966Z" fill="#BCA48D"/>
<path d="M65.9999 45.6504V46.3242H61.5788V58.5644H60.1268V46.3242H55.6895V45.6504H65.9999Z" fill="#BCA48D"/>
<path d="M11.9236 65.5417V66.6709C11.9236 67.1316 12.0231 67.4685 12.2202 67.6798C12.4173 67.8911 12.712 67.9967 13.1062 67.9967C13.2418 67.9967 13.3811 67.9894 13.5257 67.973C13.6704 67.9584 13.7825 67.9421 13.8602 67.9275L13.9724 67.9038V65.5381H14.4786V69.9964H13.9724V68.1296C13.7102 68.2007 13.4118 68.2371 13.0773 68.2371C11.9706 68.2371 11.4155 67.7089 11.4155 66.6545V65.5381H11.9236V65.5417Z" fill="#BCA48D"/>
<path d="M21.0625 69.9999H20.5164L19.8347 68.2862H18.3827L17.7064 69.9999H17.437L19.2217 65.5034H19.2669L21.0625 69.9999ZM19.1024 66.4541L18.4713 68.0531H19.7389L19.1024 66.4541Z" fill="#BCA48D"/>
<path d="M24.498 69.2513L28.2085 65.5416H28.3206V69.9998H27.8143V66.2973L24.1038 69.9998H23.9917V65.5416H24.498V69.2513ZM26.6679 64.9497C26.8197 64.8422 26.9318 64.7056 27.0024 64.5381H26.7998C26.7402 64.6401 26.6534 64.7238 26.5431 64.7876C26.4328 64.8513 26.3152 64.8841 26.1905 64.8841C25.95 64.8841 25.7674 64.7694 25.6444 64.5381H25.3063C25.3768 64.7275 25.4907 64.8695 25.6462 64.9661C25.8017 65.0626 25.9735 65.1099 26.1616 65.1099C26.3478 65.1099 26.516 65.0571 26.6679 64.9497Z" fill="#BCA48D"/>
<path d="M34.8355 65.5414H35.1573L33.4341 67.6394L35.3382 69.9978H34.7071L33.1195 68.0236L31.4975 69.9978H31.1702L32.9549 67.8251L31.125 65.5396H31.738L33.2695 67.439L34.8355 65.5414Z" fill="#BCA48D"/>
<path d="M41.4756 69.9999H40.9295L40.2478 68.2862H38.7958L38.1195 69.9999H37.8501L39.6348 65.5034H39.68L41.4756 69.9999ZM39.5155 66.4541L38.8844 68.0531H40.152L39.5155 66.4541Z" fill="#BCA48D"/>
<path d="M47.5059 65.5415H48.0068V69.9998H47.5059V67.8908H44.8876V69.9998H44.3867V65.5415H44.8876V67.6577H47.5059V65.5415Z" fill="#BCA48D"/>
<path d="M54.583 69.9999H54.0369L53.3552 68.2862H51.9032L51.2269 69.9999H50.9575L52.7422 65.5034H52.7874L54.583 69.9999ZM52.6247 66.4541L51.9936 68.0531H53.2612L52.6247 66.4541Z" fill="#BCA48D"/>
</svg>
